<svg width="20" height="16" viewBox="0 0 20 16" fill="none" xmlns="http://www.w3.org/2000/svg">
<path d="M18.842 0H1.15778C0.692697 0 0.315674 0.377023 0.315674 0.842105V1.68421C0.315674 2.14929 0.692697 2.52632 1.15778 2.52632H18.842C19.3071 2.52632 19.6841 2.14929 19.6841 1.68421V0.842105C19.6841 0.377023 19.3071 0 18.842 0Z" fill="white"/>
<path d="M18.842 6.73682H1.15778C0.692697 6.73682 0.315674 7.11384 0.315674 7.57892V8.42103C0.315674 8.88611 0.692697 9.26313 1.15778 9.26313H18.842C19.3071 9.26313 19.6841 8.88611 19.6841 8.42103V7.57892C19.6841 7.11384 19.3071 6.73682 18.842 6.73682Z" fill="white"/>
<path d="M18.842 13.4736H1.15778C0.692697 13.4736 0.315674 13.8507 0.315674 14.3157V15.1578C0.315674 15.6229 0.692697 15.9999 1.15778 15.9999H18.842C19.3071 15.9999 19.6841 15.6229 19.6841 15.1578V14.3157C19.6841 13.8507 19.3071 13.4736 18.842 13.4736Z" fill="white"/>
</svg>
