<svg width="19" height="18" viewBox="0 0 19 18" fill="none" xmlns="http://www.w3.org/2000/svg">
<path d="M11.7178 9.1351C11.6999 9.11826 11.6856 9.09792 11.6758 9.07533C11.6661 9.05275 11.661 9.0284 11.661 9.00379C11.661 8.97918 11.6661 8.95483 11.6758 8.93224C11.6856 8.90966 11.6999 8.88932 11.7178 8.87248L18.6612 1.91682C18.7664 1.81283 18.8499 1.68898 18.9069 1.55245C18.9639 1.41592 18.9933 1.26942 18.9933 1.12145C18.9933 0.973487 18.9639 0.826992 18.9069 0.690461C18.8499 0.553931 18.7664 0.430081 18.6612 0.326093C18.4494 0.117138 18.1639 0 17.8664 0C17.569 0 17.2834 0.117138 17.0716 0.326093L10.1282 7.27425C10.1107 7.29241 10.0898 7.30685 10.0666 7.31671C10.0434 7.32657 10.0184 7.33166 9.99323 7.33166C9.96803 7.33166 9.9431 7.32657 9.91991 7.31671C9.89672 7.30685 9.87575 7.29241 9.85826 7.27425L2.91487 0.326093C2.70302 0.117138 2.41751 0 2.12005 0C1.82259 0 1.53708 0.117138 1.32523 0.326093C1.22004 0.430081 1.13652 0.553931 1.07952 0.690461C1.02252 0.826992 0.993164 0.973487 0.993164 1.12145C0.993164 1.26942 1.02252 1.41592 1.07952 1.55245C1.13652 1.68898 1.22004 1.81283 1.32523 1.91682L8.26863 8.87248C8.28656 8.88932 8.30086 8.90966 8.31063 8.93224C8.3204 8.95483 8.32544 8.97918 8.32544 9.00379C8.32544 9.0284 8.3204 9.05275 8.31063 9.07533C8.30086 9.09792 8.28656 9.11826 8.26863 9.1351L1.32523 16.0833C1.22004 16.1872 1.13652 16.3111 1.07952 16.4476C1.02252 16.5842 0.993164 16.7306 0.993164 16.8786C0.993164 17.0266 1.02252 17.1731 1.07952 17.3096C1.13652 17.4461 1.22004 17.57 1.32523 17.674C1.53708 17.8829 1.82259 18.0001 2.12005 18.0001C2.41751 18.0001 2.70302 17.8829 2.91487 17.674L9.85826 10.7258C9.87575 10.7077 9.89672 10.6932 9.91991 10.6834C9.9431 10.6735 9.96803 10.6684 9.99323 10.6684C10.0184 10.6684 10.0434 10.6735 10.0666 10.6834C10.0898 10.6932 10.1107 10.7077 10.1282 10.7258L17.0716 17.674C17.2834 17.8829 17.569 18.0001 17.8664 18.0001C18.1639 18.0001 18.4494 17.8829 18.6612 17.674C18.7664 17.57 18.8499 17.4461 18.9069 17.3096C18.9639 17.1731 18.9933 17.0266 18.9933 16.8786C18.9933 16.7306 18.9639 16.5842 18.9069 16.4476C18.8499 16.3111 18.7664 16.1872 18.6612 16.0833L11.7178 9.1351Z" fill="#757575"/>
</svg>
