<svg width="24" height="24" viewBox="0 0 24 24" fill="none" xmlns="http://www.w3.org/2000/svg">
    <circle cx="12" cy="12" r="12" fill="white" fill-opacity="0.1" />
    <path
        d="M18 10.75C17.9998 10.6736 17.9821 10.5983 17.9483 10.5299C17.9145 10.4614 17.8655 10.4016 17.805 10.355L12.305 6.10501C12.2176 6.03771 12.1103 6.00121 12 6.00121C11.8897 6.00121 11.7824 6.03771 11.695 6.10501L6.195 10.355C6.13449 10.4016 6.08546 10.4614 6.05166 10.5299C6.01785 10.5983 6.00018 10.6736 6 10.75V17.5C6 17.6326 6.05268 17.7598 6.14645 17.8536C6.24021 17.9473 6.36739 18 6.5 18H10.5C10.5663 18 10.6299 17.9737 10.6768 17.9268C10.7237 17.8799 10.75 17.8163 10.75 17.75V15.5C10.75 15.1685 10.8817 14.8505 11.1161 14.6161C11.3505 14.3817 11.6685 14.25 12 14.25C12.3315 14.25 12.6495 14.3817 12.8839 14.6161C13.1183 14.8505 13.25 15.1685 13.25 15.5V17.75C13.25 17.8163 13.2763 17.8799 13.3232 17.9268C13.3701 17.9737 13.4337 18 13.5 18H17.5C17.6326 18 17.7598 17.9473 17.8535 17.8536C17.9473 17.7598 18 17.6326 18 17.5V10.75Z"
        fill="white" />
</svg>