<svg width="24" height="24" viewBox="0 0 24 24" fill="none" xmlns="http://www.w3.org/2000/svg">
    <circle cx="12" cy="12" r="12" fill="white" fill-opacity="0.1" />
    <g clip-path="url(#clip0_5573_2665)">
        <path
            d="M6.75 18C6.94891 18 7.13968 17.921 7.28033 17.7803C7.42098 17.6397 7.5 17.4489 7.5 17.25V15.335C7.50032 15.31 7.50812 15.2857 7.52238 15.2652C7.53663 15.2447 7.5567 15.229 7.58 15.22L8.185 15C8.79892 14.8064 9.44803 14.7509 10.0859 14.8373C10.7238 14.9237 11.3347 15.15 11.875 15.5C12.6902 16.0008 13.6283 16.2657 14.585 16.265C15.0645 16.2607 15.5409 16.1883 16 16.05L17.4 15.615C17.573 15.566 17.7252 15.4618 17.8335 15.3183C17.9418 15.1748 18.0003 14.9998 18 14.82V8.245C17.9996 8.11699 17.9696 7.99081 17.9124 7.87631C17.8551 7.76182 17.7722 7.66211 17.67 7.585C17.5687 7.50822 17.4509 7.45606 17.3259 7.43263C17.201 7.4092 17.0723 7.41515 16.95 7.45L15.86 7.795C15.2391 7.97351 14.5879 8.02125 13.9476 7.93518C13.3072 7.84912 12.6917 7.63113 12.14 7.295C11.5359 6.90821 10.8542 6.6589 10.1431 6.56472C9.43204 6.47054 8.70894 6.53379 8.025 6.75L7.67 6.88C7.65252 6.89009 7.63269 6.89541 7.6125 6.89541C7.59231 6.89541 7.57248 6.89009 7.555 6.88C7.53595 6.86793 7.52069 6.85075 7.51097 6.83041C7.50124 6.81007 7.49744 6.7874 7.5 6.765C7.5 6.56609 7.42098 6.37532 7.28033 6.23467C7.13968 6.09402 6.94891 6.015 6.75 6.015C6.55109 6.015 6.36032 6.09402 6.21967 6.23467C6.07902 6.37532 6 6.56609 6 6.765V17.265C6.00393 17.4613 6.08467 17.6482 6.2249 17.7857C6.36513 17.9231 6.55366 18 6.75 18ZM13.61 10C13.5623 9.96909 13.5223 9.92776 13.493 9.87913C13.4636 9.83049 13.4457 9.77582 13.4405 9.71925C13.4354 9.66267 13.4432 9.60567 13.4633 9.55255C13.4834 9.49942 13.5154 9.45156 13.5567 9.41257C13.598 9.37359 13.6476 9.34451 13.7018 9.32751C13.756 9.31052 13.8134 9.30607 13.8696 9.31449C13.9258 9.32291 13.9793 9.34398 14.0261 9.37612C14.073 9.40826 14.1119 9.45062 14.14 9.5L15.64 11C15.7102 11.0703 15.7497 11.1656 15.7497 11.265C15.7497 11.3644 15.7102 11.4597 15.64 11.53L14.14 13.03C14.0697 13.1002 13.9744 13.1397 13.875 13.1397C13.7756 13.1397 13.6803 13.1002 13.61 13.03C13.5398 12.9597 13.5003 12.8644 13.5003 12.765C13.5003 12.6656 13.5398 12.5703 13.61 12.5L14.755 11.355C14.7671 11.3433 14.7767 11.3294 14.7833 11.3139C14.7899 11.2984 14.7933 11.2818 14.7933 11.265C14.7933 11.2482 14.7899 11.2316 14.7833 11.2161C14.7767 11.2006 14.7671 11.1867 14.755 11.175L13.61 10ZM11.5 13.105C11.4504 13.0895 11.4046 13.0638 11.3655 13.0297C11.3264 12.9955 11.2947 12.9536 11.2726 12.9066C11.2505 12.8596 11.2385 12.8085 11.2371 12.7566C11.2358 12.7047 11.2453 12.6531 11.265 12.605L12.265 9.605C12.2824 9.55674 12.3091 9.51238 12.3437 9.47445C12.3782 9.43652 12.4199 9.40577 12.4663 9.38395C12.5128 9.36212 12.563 9.34966 12.6143 9.34727C12.6655 9.34488 12.7167 9.3526 12.765 9.37C12.8133 9.3874 12.8576 9.41413 12.8956 9.44868C12.9335 9.48322 12.9642 9.5249 12.9861 9.57133C13.0079 9.61776 13.0203 9.66803 13.0227 9.71928C13.0251 9.77052 13.0174 9.82174 13 9.87L12 12.87C11.9749 12.9443 11.9272 13.0088 11.8635 13.0546C11.7998 13.1003 11.7234 13.1249 11.645 13.125C11.5958 13.1291 11.5463 13.1223 11.5 13.105ZM8.61 11.5C8.53977 11.4297 8.50033 11.3344 8.50033 11.235C8.50033 11.1356 8.53977 11.0403 8.61 10.97L10.11 9.47C10.1811 9.40376 10.2751 9.3677 10.3723 9.36941C10.4694 9.37113 10.5621 9.41048 10.6308 9.47919C10.6995 9.54789 10.7389 9.64059 10.7406 9.73774C10.7423 9.83489 10.7062 9.92891 10.64 10L9.5 11.16C9.4879 11.1717 9.47828 11.1856 9.47171 11.2011C9.46513 11.2166 9.46175 11.2332 9.46175 11.25C9.46175 11.2668 9.46513 11.2834 9.47171 11.2989C9.47828 11.3144 9.4879 11.3283 9.5 11.34L10.64 12.5C10.7102 12.5703 10.7497 12.6656 10.7497 12.765C10.7497 12.8644 10.7102 12.9597 10.64 13.03C10.5697 13.1002 10.4744 13.1397 10.375 13.1397C10.2756 13.1397 10.1803 13.1002 10.11 13.03L8.61 11.5Z"
            fill="white" />
    </g>
    <defs>
        <clipPath id="clip0_5573_2665">
            <rect width="12" height="12" fill="white" transform="translate(6 6)" />
        </clipPath>
    </defs>
</svg>