<svg width="32" height="32" viewBox="0 0 32 32" fill="none" xmlns="http://www.w3.org/2000/svg">
    <circle cx="16" cy="16" r="16" fill="white" fill-opacity="0.1" />
    <g clip-path="url(#clip0_5135_19481)">
        <path
            d="M19.0667 16.4267C19.0736 16.3977 19.0723 16.3674 19.0628 16.3391C19.0534 16.3108 19.0363 16.2857 19.0134 16.2667C18.8527 16.1275 18.7238 15.9556 18.6352 15.7624C18.5467 15.5692 18.5006 15.3592 18.5 15.1467C18.5005 15.016 18.5184 14.886 18.5534 14.76C18.5639 14.7275 18.5637 14.6926 18.5529 14.6602C18.5421 14.6278 18.5213 14.5997 18.4934 14.58C17.5702 13.9123 16.4716 13.5299 15.3334 13.48H15.28C15.2409 13.4767 15.2017 13.4867 15.169 13.5085C15.1363 13.5303 15.112 13.5626 15.1 13.6C15.0027 13.9499 14.7937 14.2585 14.5049 14.4787C14.2161 14.6989 13.8632 14.8188 13.5 14.82C13.495 14.8171 13.4892 14.8156 13.4834 14.8156C13.4775 14.8156 13.4718 14.8171 13.4667 14.82C13.3139 15.6696 13.2936 16.5376 13.4067 17.3934C13.4126 17.429 13.4291 17.4621 13.4541 17.4883C13.4791 17.5144 13.5113 17.5325 13.5467 17.54C15.026 17.7834 16.4572 18.2605 17.7867 18.9534C17.8229 18.9705 17.864 18.9746 17.9029 18.9649C17.9418 18.9551 17.9761 18.9322 18 18.9C18.5179 18.1555 18.8807 17.3143 19.0667 16.4267Z"
            fill="white" />
        <path
            d="M17.08 20C17.0986 19.9808 17.1124 19.9576 17.1205 19.9321C17.1286 19.9067 17.1307 19.8797 17.1267 19.8533C17.1228 19.8262 17.1122 19.8004 17.0959 19.7783C17.0796 19.7562 17.0582 19.7385 17.0334 19.7267C16.0503 19.2462 15.0112 18.8902 13.94 18.6667C13.911 18.6598 13.8807 18.6611 13.8524 18.6705C13.8242 18.68 13.7991 18.6971 13.78 18.72C13.7606 18.7412 13.7473 18.7673 13.7414 18.7954C13.7355 18.8236 13.7374 18.8528 13.7467 18.88C13.8488 19.1835 13.9714 19.4797 14.1134 19.7667C14.4031 20.3198 14.7664 20.8311 15.1934 21.2867C15.2199 21.3155 15.2555 21.3345 15.2942 21.3406C15.333 21.3467 15.3726 21.3394 15.4067 21.32C15.9864 20.9086 16.5449 20.468 17.08 20Z"
            fill="white" />
        <path
            d="M12.2 17.4C12.226 17.4006 12.2517 17.3948 12.2749 17.3832C12.2981 17.3715 12.3182 17.3544 12.3333 17.3333C12.3652 17.2964 12.3818 17.2487 12.38 17.2C12.2864 16.3096 12.3314 15.41 12.5133 14.5333C12.5174 14.5262 12.5196 14.5182 12.5196 14.51C12.5196 14.5018 12.5174 14.4938 12.5133 14.4867C12.2874 14.311 12.1087 14.0819 11.9933 13.82C11.9799 13.7848 11.9545 13.7555 11.9216 13.7372C11.8886 13.7189 11.8503 13.7128 11.8133 13.72C10.4075 13.9727 9.10429 14.6254 8.06 15.6C8.0316 15.6284 8.01494 15.6665 8.01334 15.7067C8.01334 15.8 8.01334 15.8867 8.01334 15.98C8.01461 16.5132 8.07045 17.0449 8.18 17.5667C8.18371 17.5887 8.19219 17.6097 8.20486 17.6281C8.21753 17.6466 8.23407 17.662 8.25334 17.6733C8.27296 17.6833 8.29466 17.6885 8.31667 17.6885C8.33868 17.6885 8.36038 17.6833 8.38 17.6733C9.63386 17.4011 10.9202 17.309 12.2 17.4Z"
            fill="white" />
        <path
            d="M14.1534 21.94C14.1784 21.9314 14.2008 21.9164 14.2183 21.8965C14.2358 21.8766 14.2479 21.8526 14.2534 21.8267C14.2597 21.8013 14.26 21.7748 14.2542 21.7494C14.2484 21.7239 14.2367 21.7001 14.22 21.68C13.829 21.2282 13.4933 20.7314 13.22 20.2C12.9571 19.6777 12.7536 19.1276 12.6134 18.56C12.6052 18.5262 12.5866 18.4959 12.5603 18.4732C12.534 18.4504 12.5013 18.4365 12.4667 18.4333C11.1955 18.3192 9.91438 18.3979 8.6667 18.6667C8.6429 18.6726 8.62057 18.6834 8.60108 18.6983C8.58159 18.7132 8.56535 18.7319 8.55337 18.7533C8.54333 18.7741 8.53812 18.7969 8.53812 18.82C8.53812 18.8431 8.54333 18.8659 8.55337 18.8867C9.11884 20.3157 10.084 21.5517 11.3334 22.4467C11.3662 22.4551 11.4006 22.4551 11.4334 22.4467C12.3633 22.4447 13.2851 22.273 14.1534 21.94Z"
            fill="white" />
        <path
            d="M20.62 16.6667C20.6005 16.6405 20.5732 16.6212 20.5421 16.6116C20.5109 16.602 20.4775 16.6026 20.4467 16.6133C20.3571 16.6381 20.2657 16.656 20.1733 16.6667C20.1387 16.6699 20.106 16.6838 20.0797 16.7065C20.0534 16.7292 20.0349 16.7596 20.0267 16.7933C19.64 18.5667 18.6067 20.36 16.1933 22.02C16.1543 22.0519 16.1282 22.0969 16.12 22.1467C16.1203 22.1982 16.1392 22.248 16.1733 22.2867C16.738 22.7928 17.3324 23.2647 17.9533 23.7C17.9748 23.7117 17.9989 23.7178 18.0233 23.7178C18.0478 23.7178 18.0718 23.7117 18.0933 23.7C19.8117 23.2324 21.325 22.2048 22.3933 20.78C22.4072 20.7622 22.4172 20.7418 22.423 20.7201C22.4287 20.6983 22.4299 20.6756 22.4267 20.6533C22.1657 19.1948 21.5447 17.8244 20.62 16.6667Z"
            fill="white" />
        <path
            d="M11.8 12.7067C11.8305 12.702 11.8592 12.6889 11.8827 12.6689C11.9063 12.6489 11.9238 12.6227 11.9333 12.5933C12.0381 12.296 12.2255 12.0346 12.4734 11.8398C12.7213 11.645 13.0196 11.5248 13.3333 11.4933C13.3452 11.4927 13.3566 11.4885 13.3661 11.4814C13.3756 11.4743 13.3827 11.4645 13.3867 11.4533C13.898 10.3093 14.5716 9.24505 15.3867 8.29333C15.4056 8.26716 15.4159 8.23566 15.4159 8.20333C15.4159 8.17101 15.4056 8.13951 15.3867 8.11333C15.3782 8.08565 15.3627 8.06064 15.3417 8.04077C15.3206 8.0209 15.2948 8.00685 15.2667 8C13.6702 8.14976 12.1555 8.77581 10.9192 9.79696C9.6829 10.8181 8.78198 12.1872 8.33333 13.7267C8.32282 13.7591 8.32298 13.7941 8.33377 13.8265C8.34457 13.8589 8.36544 13.887 8.39333 13.9067C8.42053 13.9262 8.45318 13.9367 8.48667 13.9367C8.52015 13.9367 8.5528 13.9262 8.58 13.9067C9.56159 13.294 10.6568 12.8858 11.8 12.7067Z"
            fill="white" />
        <path
            d="M15.18 22.7C15.1528 22.6805 15.1201 22.67 15.0867 22.67C15.0532 22.67 15.0205 22.6805 14.9933 22.7C14.4875 22.9336 13.9607 23.1189 13.42 23.2533C13.3854 23.2634 13.355 23.2845 13.3333 23.3133C13.3117 23.3422 13.3 23.3773 13.3 23.4133C13.3 23.4494 13.3117 23.4845 13.3333 23.5133C13.355 23.5422 13.3854 23.5632 13.42 23.5733C14.2506 23.8568 15.1223 24.001 16 24H16.2C16.2338 23.9982 16.2664 23.9864 16.2936 23.9663C16.3209 23.9462 16.3416 23.9185 16.3533 23.8867C16.3638 23.8542 16.3637 23.8192 16.3529 23.7868C16.3421 23.7544 16.3212 23.7263 16.2933 23.7067C15.9467 23.3933 15.5667 23.0667 15.18 22.7Z"
            fill="white" />
        <path
            d="M20.5 13.6267C20.5012 13.658 20.5112 13.6885 20.5288 13.7144C20.5465 13.7404 20.5712 13.7608 20.6 13.7733C20.8668 13.8907 21.0938 14.0829 21.2535 14.3266C21.4133 14.5704 21.4989 14.8552 21.5 15.1467C21.5014 15.3778 21.4489 15.606 21.3467 15.8133C21.3271 15.8405 21.3166 15.8732 21.3166 15.9067C21.3166 15.9401 21.3271 15.9728 21.3467 16C22.08 16.9172 22.6485 17.9549 23.0267 19.0667C23.0367 19.0995 23.057 19.1283 23.0846 19.1487C23.1122 19.1691 23.1457 19.1801 23.18 19.18C23.2131 19.1832 23.2463 19.175 23.2742 19.1568C23.302 19.1387 23.3229 19.1116 23.3333 19.08C23.7617 18.109 23.9885 17.0612 24 16C24.0032 14.6214 23.6501 13.2654 22.975 12.0635C22.2998 10.8616 21.3256 9.85454 20.1467 9.13999C20.1188 9.12218 20.0864 9.11272 20.0533 9.11272C20.0203 9.11272 19.9879 9.12218 19.96 9.13999C19.9334 9.15924 19.9134 9.1862 19.9027 9.21721C19.892 9.24821 19.891 9.28177 19.9 9.31332C20.2624 10.7238 20.4637 12.1708 20.5 13.6267Z"
            fill="white" />
        <path
            d="M14.4067 11.5867C14.3912 11.6221 14.3881 11.6618 14.3977 11.6992C14.4074 11.7367 14.4293 11.7698 14.46 11.7934C14.6887 11.9529 14.8724 12.1687 14.9933 12.42C15.0107 12.4559 15.0409 12.4839 15.0778 12.4987C15.1148 12.5135 15.156 12.514 15.1933 12.5H15.3333C16.7029 12.554 18.0245 13.0185 19.1267 13.8334C19.1532 13.8514 19.1846 13.8611 19.2167 13.8611C19.2488 13.8611 19.2801 13.8514 19.3067 13.8334L19.4 13.7934C19.4298 13.7803 19.4552 13.7589 19.4729 13.7316C19.4907 13.7044 19.5001 13.6725 19.5 13.64C19.444 11.9002 19.1639 10.1749 18.6667 8.50669C18.6575 8.47769 18.64 8.45207 18.6162 8.43308C18.5925 8.41408 18.5636 8.40258 18.5333 8.40002C18.0547 8.23681 17.5612 8.12071 17.06 8.05335C17.0341 8.05014 17.0078 8.05332 16.9834 8.06262C16.959 8.07192 16.9372 8.08705 16.92 8.10669C15.9181 9.13881 15.0714 10.3111 14.4067 11.5867Z"
            fill="white" />
    </g>
    <defs>
        <clipPath id="clip0_5135_19481">
            <rect width="16" height="16" fill="white" transform="translate(8 8)" />
        </clipPath>
    </defs>
</svg>