<svg width="32" height="32" viewBox="0 0 32 32" fill="none" xmlns="http://www.w3.org/2000/svg">
    <circle cx="16" cy="16" r="16" fill="white" fill-opacity="0.1" />
    <g clip-path="url(#clip0_5135_19500)">
        <path
            d="M23.5512 20.914L21.7686 20.0393C21.74 20.0253 21.716 20.0034 21.6994 19.9762C21.6828 19.949 21.6744 19.9176 21.6751 19.8858V14.3309C21.6748 14.2024 21.6375 14.0768 21.5677 13.969C21.4978 13.8613 21.3983 13.776 21.2812 13.7233L16.9347 11.7537C16.9049 11.7407 16.8795 11.7192 16.8617 11.6919C16.8439 11.6646 16.8345 11.6327 16.8346 11.6002V9.32345C16.8346 9.1021 16.7467 8.88983 16.5902 8.73332C16.4336 8.5768 16.2214 8.48888 16 8.48888C15.7787 8.48888 15.5664 8.5768 15.4099 8.73332C15.2534 8.88983 15.1655 9.1021 15.1655 9.32345V11.6068C15.1643 11.6383 15.1543 11.6687 15.1366 11.6947C15.1189 11.7207 15.0941 11.7412 15.0653 11.7537L10.7189 13.7567C10.6017 13.8093 10.5023 13.8947 10.4324 14.0024C10.3625 14.1102 10.3252 14.2358 10.325 14.3642V19.9191C10.3257 19.951 10.3172 19.9824 10.3007 20.0096C10.2841 20.0368 10.2601 20.0587 10.2315 20.0727L8.44884 20.9273C8.35075 20.9756 8.26318 21.0428 8.19121 21.1251C8.11924 21.2075 8.06429 21.3032 8.02953 21.4069C7.99477 21.5105 7.98088 21.6201 7.98868 21.7291C7.99648 21.8382 8.0258 21.9446 8.07496 22.0423C8.17515 22.2396 8.34907 22.3895 8.55903 22.4595C8.76898 22.5295 8.99806 22.5139 9.19662 22.4162L11.1996 21.4214C11.2084 21.4153 11.2189 21.4121 11.2296 21.4121C11.2403 21.4121 11.2508 21.4153 11.2597 21.4214L15.7931 23.4644C15.8565 23.4908 15.9246 23.5045 15.9934 23.5045C16.0621 23.5045 16.1302 23.4908 16.1937 23.4644L20.7204 21.4214C20.7302 21.4148 20.7419 21.4112 20.7537 21.4112C20.7656 21.4112 20.7772 21.4148 20.7871 21.4214L22.7901 22.4095C22.9884 22.5087 23.218 22.525 23.4284 22.4549C23.6387 22.3847 23.8126 22.2339 23.9118 22.0356C24.0109 21.8373 24.0272 21.6077 23.9571 21.3973C23.887 21.187 23.7362 21.0131 23.5379 20.914H23.5512ZM12.9488 14.4844C12.9187 14.4716 12.8931 14.4502 12.875 14.4229C12.857 14.3956 12.8473 14.3636 12.8473 14.3309C12.8473 14.2981 12.857 14.2661 12.875 14.2388C12.8931 14.2115 12.9187 14.1901 12.9488 14.1773L15.9333 12.842C15.9541 12.8319 15.9769 12.8267 16 12.8267C16.0232 12.8267 16.046 12.8319 16.0668 12.842L19.0712 14.1773C19.1014 14.1901 19.127 14.2115 19.1451 14.2388C19.1631 14.2661 19.1727 14.2981 19.1727 14.3309C19.1727 14.3636 19.1631 14.3956 19.1451 14.4229C19.127 14.4502 19.1014 14.4716 19.0712 14.4844L16.0668 15.8197C16.046 15.8298 16.0232 15.835 16 15.835C15.9769 15.835 15.9541 15.8298 15.9333 15.8197L12.9488 14.4844Z"
            fill="white" />
    </g>
    <defs>
        <clipPath id="clip0_5135_19500">
            <rect width="16" height="16" fill="white" transform="translate(8 8)" />
        </clipPath>
    </defs>
</svg>