<svg width="32" height="32" viewBox="0 0 32 32" fill="none" xmlns="http://www.w3.org/2000/svg">
    <circle cx="16" cy="16" r="16" fill="white" fill-opacity="0.1" />
    <path
        d="M20.2483 8.10343C20.1996 8.05383 20.1355 8.01988 20.065 8.00643C19.9945 7.99298 19.9213 8.00072 19.8558 8.02853C19.7889 8.0533 19.7315 8.09648 19.6913 8.1524C19.6511 8.20832 19.6299 8.27434 19.6305 8.34177V9.53345C19.6305 9.5786 19.6113 9.6219 19.5773 9.65382C19.5432 9.68575 19.497 9.70368 19.4488 9.70368H13.0017C11.8694 9.70368 10.7835 10.1246 9.98219 10.874C9.1809 11.6235 8.72977 12.6402 8.72785 13.7009C8.7246 14.4593 8.95694 15.2023 9.39654 15.8391C9.42834 15.888 9.47327 15.9281 9.52684 15.9556C9.58042 15.9831 9.64075 15.9969 9.70182 15.9957H9.7527C9.82061 15.9874 9.88462 15.9612 9.93734 15.9202C9.99007 15.8793 10.0294 15.8252 10.0507 15.7642C10.2432 15.1933 10.6243 14.6944 11.139 14.3394C11.6537 13.9845 12.2754 13.7919 12.9145 13.7894H19.456C19.5042 13.7894 19.5505 13.8074 19.5845 13.8393C19.6186 13.8712 19.6378 13.9145 19.6378 13.9597V15.1513C19.6381 15.2186 19.6597 15.2842 19.6998 15.3399C19.7399 15.3957 19.7967 15.439 19.8631 15.4646C19.9286 15.4924 20.0018 15.5001 20.0723 15.4867C20.1427 15.4732 20.2069 15.4393 20.2556 15.3897L23.8898 11.9849C23.9246 11.9543 23.9523 11.9174 23.9712 11.8764C23.9901 11.8354 23.9999 11.7912 23.9999 11.7466C23.9999 11.7019 23.9901 11.6577 23.9712 11.6167C23.9523 11.5757 23.9246 11.5388 23.8898 11.5082L20.2483 8.10343Z"
        fill="white" />
    <path
        d="M19.0782 18.2046H12.5366C12.4897 18.2029 12.4453 18.1842 12.4128 18.1524C12.3803 18.1207 12.3621 18.0784 12.3622 18.0344V16.8427C12.3628 16.7753 12.3416 16.7093 12.3014 16.6534C12.2611 16.5974 12.2038 16.5543 12.1368 16.5295C12.0713 16.5017 11.9981 16.4939 11.9276 16.5074C11.8572 16.5208 11.793 16.5548 11.7443 16.6044L8.11013 20.0092C8.07536 20.0397 8.04766 20.0767 8.02871 20.1177C8.00977 20.1587 8 20.2028 8 20.2475C8 20.2922 8.00977 20.3364 8.02871 20.3774C8.04766 20.4184 8.07536 20.4553 8.11013 20.4858L11.7443 23.8906C11.7768 23.9233 11.8162 23.9493 11.86 23.9669C11.9038 23.9845 11.9511 23.9933 11.9987 23.9928C12.0442 24.0024 12.0914 24.0024 12.1368 23.9928C12.208 23.9656 12.2681 23.918 12.3086 23.8569C12.3491 23.7957 12.3678 23.7241 12.3622 23.6523V22.4606C12.3622 22.4155 12.3813 22.3722 12.4154 22.3403C12.4495 22.3083 12.4957 22.2904 12.5439 22.2904H18.991C20.1232 22.2904 21.2092 21.8695 22.0105 21.12C22.8117 20.3706 23.2629 19.3539 23.2648 18.2932C23.268 17.5347 23.0357 16.7918 22.5961 16.155C22.5584 16.1002 22.505 16.0564 22.442 16.0287C22.3791 16.001 22.309 15.9905 22.24 15.9983C22.1721 16.0095 22.1086 16.0374 22.0562 16.0794C22.0038 16.1213 21.9643 16.1756 21.9419 16.2367C21.7482 16.8063 21.3666 17.3038 20.852 17.6574C20.3374 18.011 19.7164 18.2026 19.0782 18.2046Z"
        fill="white" />
</svg>