<svg width="32" height="32" viewBox="0 0 32 32" fill="none" xmlns="http://www.w3.org/2000/svg">
    <circle cx="16" cy="16" r="16" fill="white" fill-opacity="0.1" />
    <path
        d="M23.9953 10.3373C23.9953 9.98384 23.8549 9.64491 23.605 9.39501C23.3551 9.14511 23.0161 9.00472 22.6627 9.00472H9.33745C9.16112 9.00111 8.98596 9.03419 8.8231 9.10186C8.66023 9.16953 8.5132 9.27031 8.39135 9.39782C8.26652 9.51996 8.16788 9.66625 8.10144 9.82776C8.035 9.98927 8.00216 10.1626 8.00492 10.3373V15.2076C8.01738 17.4932 8.80618 19.7067 10.2419 21.4851C11.6777 23.2635 13.6752 24.5011 15.9068 24.9951C15.951 25.0016 15.9959 25.0016 16.0401 24.9951C16.0843 25.0014 16.1291 25.0014 16.1733 24.9951C18.4018 24.4815 20.3896 23.226 21.8109 21.4343C23.2321 19.6426 24.0023 17.4212 23.9953 15.1344V10.3373ZM10.9232 17.1931C10.9075 17.1343 10.9078 17.0724 10.9242 17.0138C10.9406 16.9552 10.9725 16.9021 11.0164 16.86L16.753 11.4299C16.8153 11.3742 16.8959 11.3433 16.9795 11.3433H18.6652C18.6986 11.3427 18.7315 11.3519 18.7599 11.3696C18.7883 11.3874 18.8109 11.4129 18.8251 11.4433C18.8358 11.4751 18.8378 11.5092 18.8307 11.542C18.8237 11.5749 18.8079 11.6052 18.7851 11.6298L11.6361 18.4057C11.6185 18.4246 11.5965 18.4388 11.5721 18.447C11.5476 18.4551 11.5215 18.457 11.4961 18.4524C11.4676 18.4443 11.4415 18.4291 11.4205 18.4081C11.3995 18.3871 11.3843 18.361 11.3762 18.3324C11.1934 17.9661 11.0419 17.5849 10.9232 17.1931ZM11.1297 11.3433H14.0013C14.0338 11.3432 14.0656 11.3526 14.0929 11.3704C14.1201 11.3881 14.1415 11.4135 14.1545 11.4433C14.1669 11.4748 14.1697 11.5094 14.1626 11.5425C14.1554 11.5757 14.1388 11.606 14.1146 11.6298L10.9431 14.628C10.9197 14.6505 10.8902 14.6656 10.8582 14.6716C10.8262 14.6775 10.7932 14.6739 10.7633 14.6613C10.7347 14.6473 10.7108 14.6255 10.6942 14.5983C10.6777 14.5712 10.6693 14.5398 10.67 14.5081V11.843C10.6644 11.7794 10.6722 11.7153 10.6928 11.6548C10.7134 11.5943 10.7464 11.5388 10.7896 11.4918C10.8329 11.4448 10.8855 11.4073 10.944 11.3817C11.0026 11.3561 11.0658 11.3431 11.1297 11.3433ZM12.5555 20.058C12.525 20.0269 12.5079 19.9851 12.5079 19.9415C12.5079 19.8979 12.525 19.856 12.5555 19.8249L21.137 11.7164C21.1562 11.7053 21.1781 11.6995 21.2003 11.6995C21.2225 11.6995 21.2443 11.7053 21.2636 11.7164C21.2808 11.7245 21.2958 11.7366 21.3073 11.7517C21.3189 11.7668 21.3268 11.7844 21.3302 11.803V13.442C21.3297 13.4882 21.3201 13.5337 21.3018 13.5761C21.2835 13.6184 21.2569 13.6566 21.2236 13.6886L13.7281 20.7177C13.6678 20.7693 13.591 20.7976 13.5116 20.7976C13.4322 20.7976 13.3554 20.7693 13.2951 20.7177C13.0335 20.5153 12.7864 20.2949 12.5555 20.058ZM16.1 21.9969C16.0536 22.0035 16.0065 22.0035 15.9601 21.9969C15.7469 21.9502 15.5404 21.8903 15.3405 21.8303C15.3126 21.8202 15.2877 21.8033 15.268 21.7812C15.2482 21.7591 15.2342 21.7325 15.2272 21.7037C15.2209 21.6758 15.2225 21.6466 15.2319 21.6195C15.2414 21.5924 15.2582 21.5685 15.2805 21.5505L20.9771 16.2204C21.0057 16.2012 21.0393 16.1909 21.0737 16.1909C21.1081 16.1909 21.1417 16.2012 21.1703 16.2204C21.2004 16.2373 21.2247 16.2629 21.2401 16.2937C21.2555 16.3246 21.2614 16.3594 21.2569 16.3936C21.0526 17.7347 20.4527 18.9844 19.534 19.9826C18.6153 20.9808 17.4196 21.6822 16.1 21.9969Z"
        fill="white" />
</svg>