<svg width="32" height="32" viewBox="0 0 32 32" fill="none" xmlns="http://www.w3.org/2000/svg">
    <circle cx="16" cy="16" r="16" fill="white" fill-opacity="0.1" />
    <path
        d="M8.66668 11.2933C8.65694 11.3154 8.65192 11.3392 8.65192 11.3633C8.65192 11.3874 8.65694 11.4113 8.66668 11.4333C8.68255 11.4537 8.70275 11.4702 8.72581 11.4817C8.74888 11.4933 8.77423 11.4995 8.80001 11.5H15.3333C15.3777 11.4998 15.4205 11.4832 15.4533 11.4533C15.4674 11.437 15.4776 11.4178 15.4834 11.397C15.4891 11.3763 15.4903 11.3546 15.4867 11.3333L15.44 8.16667C15.44 8.12246 15.4225 8.08007 15.3912 8.04882C15.3599 8.01756 15.3175 8 15.2733 8H11.1C10.7763 8.00969 10.462 8.11056 10.1931 8.291C9.92416 8.47145 9.71166 8.72414 9.58001 9.02L8.79335 10.8C8.74254 10.9621 8.70026 11.1268 8.66668 11.2933Z"
        fill="white" />
    <path
        d="M16.6667 11.5H23.2C23.2258 11.4995 23.2511 11.4933 23.2742 11.4817C23.2973 11.4702 23.3175 11.4537 23.3333 11.4333C23.3431 11.4113 23.3481 11.3874 23.3481 11.3633C23.3481 11.3392 23.3431 11.3154 23.3333 11.2933C23.291 11.1263 23.2398 10.9616 23.18 10.8V10.74L22.3 9.04C22.1697 8.73887 21.9562 8.48111 21.6846 8.29692C21.4131 8.11274 21.0947 8.00974 20.7667 8H16.6067C16.5645 8.00123 16.5242 8.01783 16.4933 8.04667C16.4611 8.07852 16.442 8.12138 16.44 8.16667L16.4933 11.3333C16.4933 11.3558 16.4978 11.378 16.5066 11.3987C16.5154 11.4194 16.5283 11.438 16.5445 11.4536C16.5607 11.4692 16.5798 11.4813 16.6008 11.4893C16.6218 11.4973 16.6442 11.5009 16.6667 11.5Z"
        fill="white" />
    <path
        d="M8.5 12.6667V22.6667C8.5 23.0203 8.64048 23.3594 8.89052 23.6095C9.14057 23.8595 9.47971 24 9.83333 24H22.1667C22.5203 24 22.8594 23.8595 23.1095 23.6095C23.3595 23.3594 23.5 23.0203 23.5 22.6667V12.6667C23.5 12.6225 23.4824 12.5801 23.4512 12.5488C23.4199 12.5176 23.3775 12.5 23.3333 12.5H8.66667C8.62246 12.5 8.58007 12.5176 8.54882 12.5488C8.51756 12.5801 8.5 12.6225 8.5 12.6667ZM12.36 18.0333C12.3867 17.9742 12.4298 17.924 12.4841 17.8885C12.5385 17.8531 12.6018 17.8339 12.6667 17.8333H13.8333C13.8775 17.8333 13.9199 17.8158 13.9512 17.7845C13.9824 17.7533 14 17.7109 14 17.6667V14.5C14 14.4116 14.0351 14.3268 14.0976 14.2643C14.1601 14.2018 14.2449 14.1667 14.3333 14.1667H17.5C17.5884 14.1667 17.6732 14.2018 17.7357 14.2643C17.7982 14.3268 17.8333 14.4116 17.8333 14.5V17.6667C17.8333 17.7109 17.8509 17.7533 17.8821 17.7845C17.9134 17.8158 17.9558 17.8333 18 17.8333H19.1667C19.2298 17.8354 19.2912 17.8551 19.3438 17.8901C19.3964 17.9251 19.4382 17.9741 19.4645 18.0316C19.4909 18.0891 19.5006 18.1528 19.4928 18.2155C19.4849 18.2782 19.4597 18.3375 19.42 18.3867L16.2533 22.0533C16.2225 22.0885 16.1846 22.1167 16.1421 22.1362C16.0996 22.1558 16.0534 22.1661 16.0067 22.1667C15.9605 22.1666 15.9148 22.1571 15.8723 22.1387C15.8299 22.1204 15.7917 22.0936 15.76 22.06L12.4267 18.3933C12.3824 18.3459 12.3526 18.2869 12.3407 18.2231C12.3289 18.1593 12.3356 18.0934 12.36 18.0333Z"
        fill="white" />
</svg>