<svg width="16" height="16" viewBox="0 0 16 16" fill="none" xmlns="http://www.w3.org/2000/svg">
    <path
        d="M15.1927 13.4086L12.7349 10.9554C12.6836 10.906 12.6511 10.8403 12.6431 10.7697C12.6351 10.6991 12.6521 10.6279 12.691 10.5684C13.5491 9.20658 13.8745 7.57835 13.6055 5.99327C13.3365 4.40819 12.4918 2.97681 11.232 1.97129C9.97226 0.965773 8.38526 0.456249 6.7728 0.539599C5.16034 0.62295 3.63487 1.29336 2.48646 2.42336C1.33805 3.55336 0.646778 5.06414 0.544096 6.66843C0.441414 8.27273 0.934479 9.85865 1.92954 11.1246C2.9246 12.3906 4.35225 13.2484 5.94104 13.5348C7.52983 13.8213 9.16896 13.5165 10.5467 12.6783C10.6065 12.6395 10.6781 12.6226 10.749 12.6306C10.8199 12.6385 10.8859 12.6709 10.9355 12.722L13.3995 15.169C13.6394 15.3735 13.948 15.4804 14.2636 15.4683C14.5792 15.4561 14.8786 15.3259 15.1019 15.1035C15.3252 14.8812 15.456 14.5831 15.4682 14.2689C15.4804 13.9547 15.3731 13.6475 15.1676 13.4086H15.1927ZM7.0983 12.4161C6.04425 12.4161 5.01386 12.1049 4.13745 11.5219C3.26103 10.9388 2.57795 10.1102 2.17458 9.14061C1.77121 8.17106 1.66567 7.1042 1.87131 6.07493C2.07694 5.04567 2.58452 4.10023 3.32985 3.35817C4.07518 2.61611 5.02479 2.11076 6.05859 1.90603C7.09239 1.7013 8.16396 1.80637 9.13778 2.20797C10.1116 2.60957 10.9439 3.28966 11.5295 4.16222C12.1151 5.03479 12.4277 6.06066 12.4277 7.11008C12.426 8.51682 11.864 9.86546 10.8649 10.8602C9.86583 11.8549 8.51124 12.4144 7.0983 12.4161Z"
        fill="white" />
</svg>