<svg width="102" height="24" viewBox="0 0 102 24" fill="none" xmlns="http://www.w3.org/2000/svg">
<path d="M66.3541 5.46181C65.1275 5.34364 63.8962 5.63402 62.8517 6.28779V5.43724H60.2056V18.5678H62.8517V11.1302C62.8452 10.393 63.1082 9.67878 63.5914 9.12187C64.0745 8.56496 64.7444 8.20372 65.4752 8.10606C65.8901 8.05904 66.3104 8.10002 66.7084 8.22633C67.1065 8.35264 67.4734 8.56145 67.7854 8.83914C68.0973 9.11682 68.3472 9.45715 68.5187 9.83791C68.6903 10.2187 68.7796 10.6313 68.7809 11.0489V18.5678H71.4271V11.1642C71.4271 8.2516 69.2554 5.73209 66.3541 5.46181Z" fill="white"/>
<path d="M10.6433 5.46181C9.41668 5.34364 8.18542 5.63402 7.14089 6.28779V5.43724H4.49475V18.5678H7.14089V11.1302C7.13439 10.393 7.39743 9.67878 7.88055 9.12187C8.36367 8.56496 9.03359 8.20372 9.76435 8.10606C10.1801 8.05815 10.6012 8.09858 11.0002 8.22473C11.3992 8.35087 11.7671 8.55989 12.0797 8.83807C12.3923 9.11626 12.6427 9.45734 12.8144 9.83899C12.986 10.2206 13.0751 10.6342 13.0758 11.0527V18.5678H15.7219V11.1642C15.7219 8.2516 13.5464 5.73209 10.6433 5.46181Z" fill="white"/>
<path d="M23.3616 15.909C22.6136 15.911 21.8795 15.7069 21.2399 15.319C20.6003 14.9311 20.08 14.3744 19.7362 13.71C19.3924 13.0457 19.2383 12.2994 19.291 11.5533C19.3436 10.8071 19.6009 10.0898 20.0346 9.48035C20.4682 8.87086 21.0615 8.39269 21.7492 8.09839C22.4369 7.80408 23.1924 7.70503 23.9328 7.81211C24.6731 7.91918 25.3696 8.22825 25.9457 8.70535C26.5219 9.18244 26.9553 9.80911 27.1986 10.5165H29.9392C29.611 8.88318 28.6874 7.43016 27.3478 6.43972C26.0082 5.44927 24.3483 4.9921 22.6905 5.15703C21.0327 5.32195 19.4954 6.09719 18.3772 7.33214C17.259 8.56709 16.6398 10.1736 16.6398 11.8396C16.6398 13.5055 17.259 15.112 18.3772 16.347C19.4954 17.5819 21.0327 18.3572 22.6905 18.5221C24.3483 18.687 26.0082 18.2299 27.3478 17.2394C28.6874 16.249 29.611 14.796 29.9392 13.1626H27.1986C26.9231 13.962 26.4058 14.6559 25.7183 15.148C25.0308 15.6401 24.2071 15.906 23.3616 15.909Z" fill="white"/>
<path d="M44.1726 10.5165C43.833 8.81047 42.8502 7.30041 41.4279 6.299C40.0056 5.29758 38.2526 4.88151 36.5319 5.13696C34.8113 5.39241 33.2548 6.2998 32.1848 7.67123C31.1147 9.04267 30.613 10.7731 30.7837 12.5042C30.9543 14.2353 31.7842 15.8345 33.1014 16.9706C34.4186 18.1067 36.1223 18.6928 37.8597 18.6073C39.5971 18.5219 41.2351 17.7716 42.4346 16.5118C43.634 15.2519 44.303 13.5791 44.303 11.8396C44.3028 11.3953 44.2592 10.9522 44.1726 10.5165ZM37.595 15.9089C36.7929 15.9071 36.0092 15.6676 35.343 15.2208C34.6768 14.7739 34.1579 14.1398 33.8518 13.3983C33.5457 12.6568 33.4661 11.8413 33.623 11.0546C33.78 10.268 34.1665 9.54543 34.7337 8.97821C35.3009 8.41099 36.0235 8.02451 36.8101 7.86756C37.5968 7.7106 38.4123 7.79021 39.1538 8.09632C39.8953 8.40244 40.5294 8.92134 40.9763 9.58754C41.4231 10.2537 41.6626 11.0374 41.6644 11.8396C41.6609 12.9178 41.2311 13.9508 40.4687 14.7132C39.7063 15.4756 38.6732 15.9054 37.595 15.9089Z" fill="white"/>
<path d="M2.64612 18.5721L2.64612 0L-2.14577e-05 0L-2.14577e-05 18.5721H2.64612Z" fill="white"/>
<path d="M75.9296 5.43799H73.2834V18.5723H75.9296V5.43799Z" fill="white"/>
<path d="M75.9296 0.00390625H73.2834V2.65005H75.9296V0.00390625Z" fill="white"/>
<path d="M55.7098 5.43796V6.73834C54.7337 6.01074 53.5745 5.56892 52.3617 5.46226C51.149 5.35559 49.9305 5.58829 48.8423 6.13434C47.7542 6.68039 46.8394 7.51827 46.2001 8.55435C45.5608 9.59044 45.2223 10.7839 45.2223 12.0013C45.2223 13.2188 45.5608 14.4122 46.2001 15.4483C46.8394 16.4844 47.7542 17.3223 48.8423 17.8683C49.9305 18.4144 51.149 18.6471 52.3617 18.5404C53.5745 18.4337 54.7337 17.9919 55.7098 17.2643V17.4344C55.7098 18.2645 55.446 19.0732 54.9563 19.7435C54.4667 20.4139 53.7766 20.9112 52.9858 21.1637C52.195 21.4161 51.3444 21.4106 50.5569 21.148C49.7694 20.8853 49.0858 20.3791 48.6049 19.7025L46.7148 21.5926C47.5718 22.6407 48.7322 23.398 50.0366 23.7606C51.341 24.1231 52.7257 24.0732 54.0007 23.6177C55.2756 23.1622 56.3784 22.3235 57.1579 21.2164C57.9373 20.1094 58.3551 18.7883 58.354 17.4344V5.43796H55.7098ZM52.1942 15.8997C51.3892 15.9825 50.5784 15.814 49.8731 15.4175C49.1677 15.0209 48.6024 14.4157 48.2549 13.685C47.9073 12.9542 47.7946 12.1338 47.932 11.3364C48.0695 10.539 48.4505 9.80365 49.0227 9.23147C49.5949 8.6593 50.3302 8.27831 51.1276 8.14084C51.925 8.00336 52.7454 8.11614 53.4762 8.46369C54.2069 8.81124 54.8121 9.37652 55.2087 10.0819C55.6052 10.7872 55.7737 11.598 55.6909 12.403C55.5977 13.2985 55.1993 14.1348 54.5627 14.7715C53.926 15.4081 53.0897 15.8065 52.1942 15.8997Z" fill="white"/>
<path d="M84.7239 15.8959C84.0226 15.7706 83.3885 15.4006 82.9344 14.8517C82.4803 14.3027 82.2357 13.6105 82.2441 12.8982V8.08408H84.8902V5.43794H82.2441V0.00390625H79.5979V5.43794H76.8535V8.08408H79.5979V12.8982C79.5979 15.9828 82.1212 18.5685 85.2059 18.5779C86.5705 18.5779 87.5364 18.3076 88.4077 17.5951C87.7338 16.995 87.215 16.2408 86.8956 15.3969C86.265 15.8412 85.4852 16.0204 84.7239 15.8959Z" fill="white"/>
<path d="M101.614 10.5165C101.275 8.81047 100.292 7.30041 98.8696 6.299C97.4473 5.29758 95.6943 4.88151 93.9737 5.13696C92.2531 5.39241 90.6966 6.2998 89.6265 7.67123C88.5564 9.04267 88.0548 10.7731 88.2254 12.5042C88.3961 14.2353 89.2259 15.8345 90.5432 16.9706C91.8604 18.1067 93.5641 18.6928 95.3015 18.6073C97.0389 18.5219 98.6769 17.7716 99.8763 16.5118C101.076 15.2519 101.745 13.5791 101.745 11.8396C101.745 11.3953 101.701 10.9522 101.614 10.5165ZM95.0293 15.9089C94.2271 15.9071 93.4434 15.6676 92.7772 15.2208C92.111 14.7739 91.5921 14.1398 91.286 13.3983C90.9799 12.6568 90.9003 11.8413 91.0573 11.0546C91.2142 10.268 91.6007 9.54543 92.1679 8.97821C92.7351 8.41099 93.4577 8.02451 94.2444 7.86756C95.031 7.7106 95.8465 7.79021 96.588 8.09632C97.3295 8.40244 97.9637 8.92134 98.4105 9.58754C98.8573 10.2537 99.0968 11.0374 99.0986 11.8396C99.0952 12.9178 98.6653 13.9508 97.9029 14.7132C97.1405 15.4756 96.1074 15.9054 95.0293 15.9089Z" fill="white"/>
</svg>
