<svg version="1.2" xmlns="http://www.w3.org/2000/svg" viewBox="0 0 500 107" width="500" height="107">
	<title>Incognito Logo Horizontal</title>
	<style>
		.s0 { fill: #ffffff } 
		.s1 { fill: #1a1a1a } 
	</style>
	<path id="Layer" class="s0" d="m380.8 55.8v27.2h-9.7v-27.6c0-1.6-0.3-3.1-1-4.5-0.6-1.4-1.5-2.7-2.7-3.7-1.1-1-2.5-1.8-3.9-2.2-1.5-0.5-3-0.6-4.6-0.5-2.7 0.4-5.1 1.7-6.9 3.8-1.8 2-2.8 4.6-2.7 7.4v27.3h-9.8v-48.3h9.8v3.1c3.8-2.4 8.3-3.4 12.9-3 10.6 1 18.6 10.3 18.6 21z"/>
	<path id="Layer" class="s0" d="m175.9 55.8v27.2h-9.8v-27.6c0-1.6-0.3-3.1-0.9-4.5-0.7-1.4-1.6-2.7-2.7-3.7-1.2-1-2.5-1.8-4-2.2-1.5-0.5-3-0.7-4.5-0.5-2.7 0.4-5.2 1.7-7 3.8-1.8 2-2.7 4.6-2.7 7.4v27.3h-9.7v-48.3h9.7v3.1c3.8-2.4 8.4-3.4 12.9-3 10.7 1 18.7 10.3 18.7 21z"/>
	<path id="Layer" class="s0" d="m212.7 70.4c2.5-1.8 4.4-4.3 5.4-7.3h10.1c-1.2 6-4.6 11.4-9.6 15-4.9 3.7-11 5.4-17.1 4.7-6.1-0.6-11.7-3.4-15.9-8-4.1-4.5-6.4-10.4-6.4-16.5 0-6.2 2.3-12.1 6.4-16.6 4.2-4.6 9.8-7.4 15.9-8 6.1-0.6 12.2 1 17.1 4.7 5 3.6 8.4 9 9.6 15h-10.1c-0.9-2.6-2.5-4.9-4.6-6.7-2.1-1.7-4.7-2.9-7.4-3.3-2.7-0.4-5.5 0-8.1 1.1-2.5 1.1-4.7 2.8-6.3 5.1-1.6 2.2-2.5 4.9-2.7 7.6-0.2 2.8 0.4 5.5 1.6 7.9 1.3 2.5 3.2 4.5 5.6 6 2.3 1.4 5 2.1 7.8 2.1 3.1 0 6.1-1 8.7-2.8z"/>
	<path id="Layer" fill-rule="evenodd" class="s0" d="m281 58.3c0 6.4-2.4 12.5-6.8 17.1-4.5 4.7-10.5 7.4-16.9 7.8-6.4 0.3-12.6-1.9-17.5-6.1-4.8-4.1-7.9-10-8.5-16.4-0.6-6.4 1.2-12.7 5.1-17.8 4-5 9.7-8.4 16-9.3 6.4-0.9 12.8 0.6 18 4.3 5.3 3.7 8.9 9.2 10.1 15.5q0.5 2.4 0.5 4.9zm-14.1 10.5c2.8-2.8 4.4-6.6 4.4-10.5 0-3-0.9-5.9-2.5-8.3-1.7-2.5-4-4.4-6.7-5.5-2.7-1.1-5.7-1.4-8.6-0.9-2.9 0.6-5.6 2-7.7 4.1-2.1 2.1-3.5 4.8-4.1 7.7-0.5 2.9-0.3 5.9 0.9 8.6 1.1 2.7 3 5.1 5.5 6.7 2.4 1.6 5.3 2.5 8.2 2.5 4 0 7.8-1.6 10.6-4.4z"/>
	<path id="Layer" class="s0" d="m118 83v-68.3h9.8v68.3z"/>
	<path id="Layer" class="s0" d="m397.4 83h-9.7v-48.3h9.7z"/>
	<path id="Layer" class="s0" d="m397.4 24.4h-9.7v-9.7h9.7z"/>
	<path id="Layer" fill-rule="evenodd" class="s0" d="m332.7 34.7v44.1c0 5-1.5 9.9-4.4 14-2.8 4-6.9 7.1-11.6 8.8-4.7 1.7-9.8 1.9-14.6 0.5-4.8-1.3-9-4.1-12.2-8l7-6.9c1.7 2.5 4.2 4.3 7.1 5.3 2.9 1 6.1 1 9 0.1 2.9-1 5.4-2.8 7.2-5.3 1.8-2.4 2.8-5.4 2.8-8.5v-0.6c-3.6 2.7-7.9 4.3-12.3 4.7-4.5 0.4-9-0.5-13-2.5-4-2-7.3-5.1-9.7-8.9-2.3-3.8-3.6-8.2-3.6-12.6 0-4.5 1.3-8.9 3.6-12.7 2.4-3.8 5.7-6.9 9.7-8.9 4-2 8.5-2.9 13-2.5 4.4 0.4 8.7 2 12.3 4.7v-4.8zm-14 34.3c2.4-2.3 3.9-5.4 4.2-8.7 0.3-2.9-0.3-5.9-1.8-8.5-1.4-2.6-3.7-4.7-6.4-6-2.6-1.2-5.7-1.7-8.6-1.1-2.9 0.5-5.6 1.9-7.7 4-2.1 2.1-3.5 4.8-4.1 7.7-0.5 2.9 0 6 1.2 8.6 1.3 2.7 3.4 5 6 6.4 2.6 1.5 5.6 2.1 8.5 1.8 3.3-0.3 6.4-1.8 8.7-4.2z"/>
	<path id="Layer" class="s0" d="m437.7 71.3c1.2 3.2 3.1 5.9 5.6 8.1-3.2 2.7-6.8 3.6-11.8 3.6-11.3 0-20.6-9.5-20.6-20.8v-17.8h-10.1v-9.7h10.1v-20h9.7v20h9.8v9.7h-9.8v17.8c0 2.6 0.9 5.1 2.6 7.1 1.6 2.1 4 3.4 6.5 3.9 2.8 0.4 5.7-0.2 8-1.9z"/>
	<path id="Layer" fill-rule="evenodd" class="s0" d="m492.4 58.3c0 6.4-2.5 12.5-6.9 17.1-4.4 4.7-10.4 7.4-16.8 7.8-6.4 0.3-12.7-1.9-17.5-6.1-4.9-4.1-7.9-10-8.6-16.4-0.6-6.4 1.2-12.7 5.2-17.8 3.9-5 9.6-8.4 16-9.3 6.3-0.9 12.8 0.6 18 4.3 5.2 3.7 8.8 9.2 10.1 15.5q0.5 2.4 0.5 4.9zm-14.2 10.5c2.8-2.8 4.4-6.6 4.4-10.5 0-3-0.9-5.9-2.5-8.3-1.6-2.5-4-4.4-6.7-5.5-2.7-1.1-5.7-1.4-8.6-0.9-2.9 0.6-5.6 2-7.7 4.1-2.1 2.1-3.5 4.8-4.1 7.7-0.5 2.9-0.2 5.9 0.9 8.6 1.1 2.7 3 5.1 5.5 6.7 2.4 1.6 5.3 2.5 8.3 2.5 3.9 0 7.7-1.6 10.5-4.4z"/>
	<circle id="Shape 1" class="s1" cx="53.5" cy="50.5" r="40.5"/>
	<path id="Layer" fill-rule="evenodd" class="s0" d="m7 49.8c0-25.8 21-46.8 46.8-46.8 25.8 0 46.8 21 46.8 46.8 0 25.8-21 46.8-46.8 46.8-25.8 0-46.8-21-46.8-46.8zm46.8 39c21.5 0 39-17.5 39-39 0-21.5-17.5-39-39-39-21.5 0-39 17.5-39 39 0 21.5 17.5 39 39 39z"/>
</svg>