<svg width="103" height="42" viewBox="0 0 103 42" fill="none" xmlns="http://www.w3.org/2000/svg">
<path d="M12 37.6514V29.3003H17.2357V30.385H13.26V32.9294H16.9625V34.01H13.26V36.5667H17.2847V37.6514H12Z" fill="#C0C0C0"/>
<path d="M19.2091 31.3881L20.5915 33.8265L21.986 31.3881H23.3194L21.3662 34.5197L23.3358 37.6514H22.0023L20.5915 35.3108L19.1847 37.6514H17.8472L19.7963 34.5197L17.8717 31.3881H19.2091Z" fill="#C0C0C0"/>
<path d="M23.9972 40.0001V31.3881H25.1878V32.4034H25.2898C25.3605 32.2729 25.4624 32.122 25.5956 31.9508C25.7288 31.7795 25.9137 31.63 26.1502 31.5022C26.3867 31.3718 26.6993 31.3065 27.088 31.3065C27.5937 31.3065 28.0449 31.4343 28.4418 31.6898C28.8387 31.9453 29.15 32.3137 29.3756 32.7949C29.604 33.276 29.7181 33.8551 29.7181 34.532C29.7181 35.2089 29.6053 35.7892 29.3797 36.2731C29.1541 36.7543 28.8442 37.1254 28.45 37.3863C28.0558 37.6446 27.6059 37.7737 27.1003 37.7737C26.7197 37.7737 26.4084 37.7098 26.1665 37.5821C25.9273 37.4543 25.7397 37.3048 25.6038 37.1335C25.4678 36.9623 25.3632 36.81 25.2898 36.6768H25.2164V40.0001H23.9972ZM25.1919 34.5197C25.1919 34.9601 25.2558 35.3461 25.3836 35.6778C25.5113 36.0094 25.6962 36.2691 25.9381 36.4566C26.1801 36.6415 26.4764 36.7339 26.8271 36.7339C27.1913 36.7339 27.4958 36.6374 27.7405 36.4444C27.9851 36.2487 28.17 35.9836 28.295 35.6492C28.4228 35.3149 28.4867 34.9384 28.4867 34.5197C28.4867 34.1065 28.4242 33.7355 28.2991 33.4065C28.1768 33.0776 27.9919 32.818 27.7445 32.6277C27.4999 32.4374 27.1941 32.3422 26.8271 32.3422C26.4737 32.3422 26.1746 32.4333 25.93 32.6154C25.688 32.7976 25.5045 33.0518 25.3795 33.378C25.2544 33.7042 25.1919 34.0848 25.1919 34.5197Z" fill="#C0C0C0"/>
<path d="M31.7292 29.3003V37.6514H30.51V29.3003H31.7292Z" fill="#C0C0C0"/>
<path d="M35.4336 37.7778C34.8464 37.7778 34.334 37.6432 33.8963 37.3741C33.4587 37.105 33.1189 36.7285 32.8769 36.2446C32.635 35.7607 32.514 35.1953 32.514 34.5483C32.514 33.8986 32.635 33.3304 32.8769 32.8438C33.1189 32.3572 33.4587 31.9793 33.8963 31.7102C34.334 31.4411 34.8464 31.3065 35.4336 31.3065C36.0208 31.3065 36.5332 31.4411 36.9709 31.7102C37.4086 31.9793 37.7484 32.3572 37.9903 32.8438C38.2323 33.3304 38.3532 33.8986 38.3532 34.5483C38.3532 35.1953 38.2323 35.7607 37.9903 36.2446C37.7484 36.7285 37.4086 37.105 36.9709 37.3741C36.5332 37.6432 36.0208 37.7778 35.4336 37.7778ZM35.4377 36.7543C35.8183 36.7543 36.1336 36.6537 36.3837 36.4525C36.6338 36.2514 36.8187 35.9836 36.9383 35.6492C37.0606 35.3149 37.1218 34.9465 37.1218 34.5442C37.1218 34.1446 37.0606 33.7776 36.9383 33.4432C36.8187 33.1061 36.6338 32.8356 36.3837 32.6318C36.1336 32.4279 35.8183 32.3259 35.4377 32.3259C35.0544 32.3259 34.7363 32.4279 34.4835 32.6318C34.2334 32.8356 34.0472 33.1061 33.9249 33.4432C33.8053 33.7776 33.7455 34.1446 33.7455 34.5442C33.7455 34.9465 33.8053 35.3149 33.9249 35.6492C34.0472 35.9836 34.2334 36.2514 34.4835 36.4525C34.7363 36.6537 35.0544 36.7543 35.4377 36.7543Z" fill="#C0C0C0"/>
<path d="M39.14 37.6514V31.3881H40.3185V32.383H40.3837C40.4979 32.0459 40.6991 31.7809 40.9872 31.5879C41.2781 31.3921 41.607 31.2943 41.974 31.2943C42.0501 31.2943 42.1398 31.297 42.2431 31.3024C42.3492 31.3079 42.4321 31.3147 42.4919 31.3228V32.489C42.4429 32.4754 42.356 32.4605 42.2309 32.4442C42.1059 32.4252 41.9808 32.4156 41.8558 32.4156C41.5676 32.4156 41.3107 32.4768 41.0851 32.5991C40.8622 32.7187 40.6855 32.8859 40.555 33.1007C40.4245 33.3127 40.3593 33.5547 40.3593 33.8265V37.6514H39.14Z" fill="#C0C0C0"/>
<path d="M45.448 37.7778C44.8309 37.7778 44.2994 37.6459 43.8536 37.3823C43.4105 37.1158 43.068 36.7421 42.826 36.2609C42.5868 35.777 42.4672 35.2102 42.4672 34.5605C42.4672 33.9189 42.5868 33.3535 42.826 32.8642C43.068 32.3749 43.4051 31.9929 43.8373 31.7184C44.2723 31.4438 44.7806 31.3065 45.3624 31.3065C45.7158 31.3065 46.0583 31.365 46.3899 31.4819C46.7216 31.5987 47.0193 31.7822 47.283 32.0323C47.5466 32.2824 47.7546 32.6073 47.9068 33.0069C48.0591 33.4038 48.1352 33.8863 48.1352 34.4545V34.8867H43.1563V33.9733H46.9404C46.9404 33.6525 46.8752 33.3685 46.7447 33.1211C46.6142 32.871 46.4307 32.6739 46.1942 32.5298C45.9604 32.3857 45.6859 32.3137 45.3705 32.3137C45.028 32.3137 44.729 32.398 44.4734 32.5665C44.2206 32.7323 44.0249 32.9498 43.8862 33.2189C43.7503 33.4854 43.6824 33.7749 43.6824 34.0875V34.8011C43.6824 35.2197 43.7558 35.5758 43.9026 35.8694C44.0521 36.163 44.26 36.3873 44.5264 36.5423C44.7928 36.6945 45.1041 36.7706 45.4602 36.7706C45.6913 36.7706 45.902 36.738 46.0923 36.6727C46.2826 36.6048 46.447 36.5042 46.5857 36.371C46.7243 36.2378 46.8303 36.0733 46.9037 35.8776L48.0577 36.0856C47.9653 36.4254 47.7995 36.723 47.5602 36.9786C47.3237 37.2314 47.0261 37.4285 46.6672 37.5698C46.3111 37.7085 45.9047 37.7778 45.448 37.7778Z" fill="#C0C0C0"/>
<path d="M66.5665 5.47995C65.336 5.36142 64.1008 5.65272 63.053 6.30856V5.45532H60.3984V18.6275H63.053V11.1664C63.0465 10.4268 63.3103 9.71031 63.795 9.15163C64.2796 8.59295 64.9517 8.23057 65.6848 8.1326C66.101 8.08543 66.5226 8.12654 66.9219 8.25325C67.3212 8.37997 67.6894 8.58944 68.0023 8.868C68.3152 9.14657 68.5659 9.48798 68.738 9.86995C68.9101 10.2519 68.9997 10.6659 69.001 11.0848V18.6275H71.6556V11.2005C71.6556 8.2786 69.477 5.7511 66.5665 5.47995Z" fill="white"/>
<path d="M10.6788 5.47995C9.44829 5.36142 8.21312 5.65272 7.16528 6.30856V5.45532H4.51074V18.6275H7.16528V11.1664C7.15876 10.4268 7.42263 9.71031 7.90729 9.15163C8.39194 8.59295 9.06398 8.23057 9.79707 8.1326C10.2141 8.08454 10.6366 8.1251 11.0369 8.25164C11.4371 8.37819 11.8062 8.58787 12.1198 8.86694C12.4334 9.14601 12.6845 9.48817 12.8567 9.87103C13.0289 10.2539 13.1183 10.6688 13.119 11.0886V18.6275H15.7736V11.2005C15.7736 8.2786 13.5912 5.7511 10.6788 5.47995Z" fill="white"/>
<path d="M23.4375 15.9593C22.6871 15.9614 21.9507 15.7566 21.3091 15.3675C20.6674 14.9783 20.1455 14.4198 19.8006 13.7534C19.4557 13.0869 19.3011 12.3383 19.3539 11.5898C19.4067 10.8412 19.6649 10.1217 20.0999 9.51029C20.535 8.89886 21.1301 8.41918 21.82 8.12394C22.5099 7.8287 23.2678 7.72933 24.0105 7.83675C24.7531 7.94416 25.4519 8.25421 26.0298 8.73283C26.6078 9.21144 27.0427 9.84009 27.2866 10.5497H30.036C29.7067 8.91123 28.7802 7.4536 27.4363 6.46001C26.0925 5.46642 24.4273 5.0078 22.7643 5.17324C21.1012 5.33869 19.559 6.11639 18.4373 7.35526C17.3156 8.59413 16.6943 10.2057 16.6943 11.877C16.6943 13.5483 17.3156 15.1599 18.4373 16.3987C19.559 17.6376 21.1012 18.4153 22.7643 18.5807C24.4273 18.7462 26.0925 18.2876 27.4363 17.294C28.7802 16.3004 29.7067 14.8428 30.036 13.2043H27.2866C27.0103 14.0062 26.4914 14.7022 25.8016 15.1959C25.1119 15.6896 24.2857 15.9564 23.4375 15.9593Z" fill="white"/>
<path d="M44.3138 10.5499C43.9731 8.83847 42.9873 7.32362 41.5604 6.31903C40.1336 5.31444 38.375 4.89705 36.6489 5.15331C34.9228 5.40957 33.3614 6.31983 32.2879 7.69562C31.2145 9.07141 30.7112 10.8073 30.8824 12.5439C31.0536 14.2805 31.8861 15.8848 33.2075 17.0245C34.5289 18.1642 36.238 18.7521 37.9809 18.6664C39.7238 18.5808 41.367 17.8281 42.5703 16.5642C43.7735 15.3004 44.4446 13.6222 44.4447 11.8772C44.4445 11.4315 44.4007 10.987 44.3138 10.5499ZM37.7154 15.9595C36.9107 15.9576 36.1246 15.7174 35.4562 15.2691C34.7879 14.8209 34.2674 14.1847 33.9603 13.4409C33.6532 12.6971 33.5733 11.8789 33.7308 11.0898C33.8882 10.3006 34.276 9.57577 34.845 9.00675C35.414 8.43772 36.1388 8.05002 36.928 7.89257C37.7172 7.73512 38.5353 7.81497 39.2791 8.12206C40.0229 8.42915 40.6591 8.9497 41.1074 9.61801C41.5556 10.2863 41.7958 11.0725 41.7977 11.8772C41.7942 12.9588 41.363 13.9951 40.5982 14.7599C39.8333 15.5248 38.797 15.956 37.7154 15.9595Z" fill="white"/>
<path d="M2.6543 18.6311L2.6543 0L-0.000240564 0L-0.000240564 18.6311H2.6543Z" fill="white"/>
<path d="M76.1721 5.45508H73.5176V18.6311H76.1721V5.45508Z" fill="white"/>
<path d="M76.1721 0.00390625H73.5176V2.65844H76.1721V0.00390625Z" fill="white"/>
<path d="M55.887 5.45506V6.75956C54.9078 6.02965 53.7449 5.58643 52.5283 5.47943C51.3117 5.37242 50.0893 5.60586 48.9978 6.15364C47.9062 6.70142 46.9885 7.54197 46.3472 8.58134C45.7058 9.62071 45.3662 10.818 45.3662 12.0393C45.3662 13.2606 45.7058 14.4578 46.3472 15.4972C46.9885 16.5365 47.9062 17.3771 48.9978 17.9249C50.0893 18.4726 51.3117 18.7061 52.5283 18.5991C53.7449 18.4921 54.9078 18.0488 55.887 17.3189V17.4896C55.887 18.3223 55.6223 19.1336 55.1311 19.806C54.6399 20.4785 53.9477 20.9774 53.1544 21.2307C52.361 21.4839 51.5077 21.4784 50.7178 21.2149C49.9278 20.9515 49.242 20.4437 48.7595 19.7649L46.8634 21.661C47.7232 22.7124 48.8872 23.4721 50.1958 23.8358C51.5044 24.1995 52.8934 24.1495 54.1724 23.6925C55.4515 23.2356 56.5578 22.3941 57.3397 21.2836C58.1215 20.173 58.5407 18.8478 58.5396 17.4896V5.45506H55.887ZM52.3602 15.95C51.5527 16.033 50.7393 15.864 50.0317 15.4662C49.3242 15.0684 48.7571 14.4613 48.4084 13.7282C48.0598 12.9952 47.9466 12.1721 48.0846 11.3722C48.2225 10.5722 48.6047 9.8346 49.1787 9.26061C49.7527 8.68661 50.4903 8.30442 51.2902 8.16651C52.0902 8.0286 52.9132 8.14173 53.6463 8.49039C54.3793 8.83904 54.9865 9.40611 55.3843 10.1137C55.7821 10.8213 55.9511 11.6347 55.868 12.4422C55.7745 13.3406 55.3749 14.1795 54.7362 14.8182C54.0975 15.4569 53.2586 15.8565 52.3602 15.95Z" fill="white"/>
<path d="M84.995 15.9463C84.2914 15.8206 83.6553 15.4495 83.1998 14.8988C82.7442 14.3481 82.4988 13.6537 82.5073 12.9391V8.10973H85.1618V5.45519H82.5073V0.00390625H79.8527V5.45519H77.0996V8.10973H79.8527V12.9391C79.8527 16.0335 82.384 18.6274 85.4785 18.6369C86.8475 18.6369 87.8164 18.3657 88.6905 17.6509C88.0144 17.0489 87.494 16.2923 87.1736 15.4457C86.541 15.8915 85.7587 16.0712 84.995 15.9463Z" fill="white"/>
<path d="M101.938 10.5499C101.597 8.83847 100.611 7.32362 99.1844 6.31903C97.7576 5.31444 95.999 4.89705 94.2729 5.15331C92.5468 5.40957 90.9854 6.31983 89.9119 7.69562C88.8385 9.07141 88.3353 10.8073 88.5064 12.5439C88.6776 14.2805 89.5101 15.8848 90.8315 17.0245C92.1529 18.1642 93.862 18.7521 95.605 18.6664C97.3479 18.5808 98.9911 17.8281 100.194 16.5642C101.398 15.3004 102.069 13.6222 102.069 11.8772C102.068 11.4315 102.025 10.987 101.938 10.5499ZM95.3318 15.9595C94.5271 15.9576 93.741 15.7174 93.0727 15.2691C92.4044 14.8209 91.8838 14.1847 91.5767 13.4409C91.2696 12.6971 91.1898 11.8789 91.3472 11.0898C91.5047 10.3006 91.8924 9.57577 92.4614 9.00675C93.0304 8.43772 93.7553 8.05002 94.5444 7.89257C95.3336 7.73512 96.1517 7.81497 96.8955 8.12206C97.6394 8.42915 98.2755 8.9497 98.7238 9.61801C99.172 10.2863 99.4123 11.0725 99.4141 11.8772C99.4106 12.9588 98.9794 13.9951 98.2146 14.7599C97.4498 15.5248 96.4135 15.956 95.3318 15.9595Z" fill="white"/>
<rect x="53" y="26" width="34" height="16" rx="6" fill="#303030"/>
<path d="M58.3789 38V30H61.3086C61.8763 30 62.3464 30.0937 62.7188 30.2812C63.0911 30.4661 63.3698 30.7174 63.5547 31.0352C63.7396 31.3503 63.832 31.7057 63.832 32.1016C63.832 32.4349 63.7708 32.7161 63.6484 32.9453C63.526 33.1719 63.362 33.3542 63.1563 33.4922C62.9531 33.6276 62.7292 33.7266 62.4844 33.7891V33.8672C62.75 33.8802 63.0091 33.9661 63.2617 34.125C63.5169 34.2812 63.7279 34.5039 63.8945 34.793C64.0612 35.082 64.1445 35.4336 64.1445 35.8477C64.1445 36.2565 64.0482 36.6237 63.8555 36.9492C63.6654 37.2721 63.3711 37.5286 62.9727 37.7187C62.5742 37.9062 62.0651 38 61.4453 38H58.3789ZM59.5859 36.9648H61.3281C61.9063 36.9648 62.3203 36.8529 62.5703 36.6289C62.8203 36.4049 62.9453 36.125 62.9453 35.7891C62.9453 35.5365 62.8815 35.3047 62.7539 35.0937C62.6263 34.8828 62.444 34.7148 62.207 34.5898C61.9727 34.4648 61.694 34.4023 61.3711 34.4023H59.5859V36.9648ZM59.5859 33.4609H61.2031C61.474 33.4609 61.7174 33.4089 61.9336 33.3047C62.1523 33.2005 62.3255 33.0547 62.4531 32.8672C62.5833 32.6771 62.6484 32.4531 62.6484 32.1953C62.6484 31.8646 62.5326 31.5872 62.3008 31.3633C62.069 31.1393 61.7135 31.0273 61.2344 31.0273H59.5859V33.4609ZM68.0684 38.1211C67.4772 38.1211 66.9681 37.9948 66.541 37.7422C66.1165 37.487 65.7884 37.1289 65.5566 36.668C65.3275 36.2044 65.2129 35.6615 65.2129 35.0391C65.2129 34.4245 65.3275 33.8828 65.5566 33.4141C65.7884 32.9453 66.1113 32.5794 66.5254 32.3164C66.9421 32.0534 67.429 31.9219 67.9863 31.9219C68.3249 31.9219 68.653 31.9779 68.9707 32.0898C69.2884 32.2018 69.5736 32.3776 69.8262 32.6172C70.0788 32.8568 70.278 33.168 70.4238 33.5508C70.5697 33.931 70.6426 34.3932 70.6426 34.9375V35.3516H65.873V34.4766H69.498C69.498 34.1693 69.4355 33.8971 69.3105 33.6602C69.1855 33.4206 69.0098 33.2318 68.7832 33.0937C68.5592 32.9557 68.2962 32.8867 67.9941 32.8867C67.666 32.8867 67.3796 32.9674 67.1348 33.1289C66.8926 33.2878 66.7051 33.4961 66.5723 33.7539C66.4421 34.0091 66.377 34.2865 66.377 34.5859V35.2695C66.377 35.6706 66.4473 36.0117 66.5879 36.293C66.7311 36.5742 66.9303 36.7891 67.1855 36.9375C67.4408 37.0833 67.7389 37.1562 68.0801 37.1562C68.3014 37.1562 68.5033 37.125 68.6855 37.0625C68.8678 36.9974 69.0254 36.901 69.1582 36.7734C69.291 36.6458 69.3926 36.4883 69.4629 36.3008L70.5684 36.5C70.4798 36.8255 70.321 37.1107 70.0918 37.3555C69.8652 37.5977 69.5801 37.7865 69.2363 37.9219C68.8952 38.0547 68.5059 38.1211 68.0684 38.1211ZM74.7393 32V32.9375H71.4619V32H74.7393ZM72.3408 30.5625H73.5088V36.2383C73.5088 36.4648 73.5426 36.6354 73.6104 36.75C73.6781 36.862 73.7653 36.9388 73.8721 36.9805C73.9814 37.0195 74.0999 37.0391 74.2275 37.0391C74.3213 37.0391 74.4033 37.0326 74.4736 37.0195C74.5439 37.0065 74.5986 36.9961 74.6377 36.9883L74.8486 37.9531C74.7809 37.9792 74.6846 38.0052 74.5596 38.0313C74.4346 38.0599 74.2783 38.0755 74.0908 38.0781C73.7835 38.0833 73.4971 38.0286 73.2314 37.9141C72.9658 37.7995 72.751 37.6224 72.5869 37.3828C72.4229 37.1432 72.3408 36.8424 72.3408 36.4805V30.5625ZM77.7773 38.1328C77.3971 38.1328 77.0534 38.0625 76.7461 37.9219C76.4388 37.7786 76.1953 37.5716 76.0156 37.3008C75.8385 37.0299 75.75 36.6979 75.75 36.3047C75.75 35.9661 75.8151 35.6875 75.9453 35.4687C76.0755 35.25 76.2513 35.0768 76.4727 34.9492C76.694 34.8216 76.9414 34.7253 77.2148 34.6602C77.4883 34.5951 77.7669 34.5456 78.0508 34.5117C78.4102 34.4701 78.7018 34.4362 78.9258 34.4102C79.1497 34.3815 79.3125 34.3359 79.4141 34.2734C79.5156 34.2109 79.5664 34.1094 79.5664 33.9687V33.9414C79.5664 33.6003 79.4701 33.3359 79.2773 33.1484C79.0872 32.9609 78.8034 32.8672 78.4258 32.8672C78.0326 32.8672 77.7227 32.9544 77.4961 33.1289C77.2721 33.3008 77.1172 33.4922 77.0313 33.7031L75.9336 33.4531C76.0638 33.0885 76.2539 32.7943 76.5039 32.5703C76.7565 32.3437 77.0469 32.1797 77.375 32.0781C77.7031 31.974 78.0482 31.9219 78.4102 31.9219C78.6497 31.9219 78.9036 31.9505 79.1719 32.0078C79.4427 32.0625 79.6953 32.1641 79.9297 32.3125C80.1667 32.4609 80.3607 32.6732 80.5117 32.9492C80.6628 33.2227 80.7383 33.5781 80.7383 34.0156V38H79.5977V37.1797H79.5508C79.4753 37.3307 79.362 37.4792 79.2109 37.625C79.0599 37.7708 78.8659 37.8919 78.6289 37.9883C78.3919 38.0846 78.1081 38.1328 77.7773 38.1328ZM78.0313 37.1953C78.3542 37.1953 78.6302 37.1315 78.8594 37.0039C79.0911 36.8763 79.2669 36.7096 79.3867 36.5039C79.5091 36.2956 79.5703 36.0729 79.5703 35.8359V35.0625C79.5286 35.1042 79.4479 35.1432 79.3281 35.1797C79.2109 35.2135 79.0768 35.2435 78.9258 35.2695C78.7747 35.293 78.6276 35.3151 78.4844 35.3359C78.3411 35.3542 78.2214 35.3698 78.125 35.3828C77.8984 35.4115 77.6914 35.4596 77.5039 35.5273C77.319 35.5951 77.1706 35.6927 77.0586 35.8203C76.9492 35.9453 76.8945 36.112 76.8945 36.3203C76.8945 36.6094 77.0013 36.8281 77.2148 36.9766C77.4284 37.1224 77.7005 37.1953 78.0313 37.1953Z" fill="#C0C0C0"/>
</svg>
