<svg width="103" height="42" viewBox="0 0 103 42" fill="none" xmlns="http://www.w3.org/2000/svg">
<path d="M0 37.6514V29.3003H5.23574V30.385H1.26V32.9294H4.96254V34.01H1.26V36.5667H5.28468V37.6514H0Z" fill="#C0C0C0"/>
<path d="M7.20914 31.3881L8.59147 33.8265L9.98604 31.3881H11.3194L9.36623 34.5197L11.3358 37.6514H10.0023L8.59147 35.3108L7.18467 37.6514H5.84719L7.79632 34.5197L5.87166 31.3881H7.20914Z" fill="#C0C0C0"/>
<path d="M11.9972 40.0001V31.3881H13.1878V32.4034H13.2898C13.3605 32.2729 13.4624 32.122 13.5956 31.9508C13.7288 31.7795 13.9137 31.63 14.1502 31.5022C14.3867 31.3718 14.6993 31.3065 15.088 31.3065C15.5937 31.3065 16.0449 31.4343 16.4418 31.6898C16.8387 31.9453 17.15 32.3137 17.3756 32.7949C17.604 33.276 17.7181 33.8551 17.7181 34.532C17.7181 35.2089 17.6053 35.7892 17.3797 36.2731C17.1541 36.7543 16.8442 37.1254 16.45 37.3863C16.0558 37.6446 15.6059 37.7737 15.1003 37.7737C14.7197 37.7737 14.4084 37.7098 14.1665 37.5821C13.9273 37.4543 13.7397 37.3048 13.6038 37.1335C13.4678 36.9623 13.3632 36.81 13.2898 36.6768H13.2164V40.0001H11.9972ZM13.1919 34.5197C13.1919 34.9601 13.2558 35.3461 13.3836 35.6778C13.5113 36.0094 13.6962 36.2691 13.9381 36.4566C14.1801 36.6415 14.4764 36.7339 14.8271 36.7339C15.1913 36.7339 15.4958 36.6374 15.7405 36.4444C15.9851 36.2487 16.17 35.9836 16.295 35.6492C16.4228 35.3149 16.4867 34.9384 16.4867 34.5197C16.4867 34.1065 16.4242 33.7355 16.2991 33.4065C16.1768 33.0776 15.9919 32.818 15.7445 32.6277C15.4999 32.4374 15.1941 32.3422 14.8271 32.3422C14.4737 32.3422 14.1746 32.4333 13.93 32.6154C13.688 32.7976 13.5045 33.0518 13.3795 33.378C13.2544 33.7042 13.1919 34.0848 13.1919 34.5197Z" fill="#C0C0C0"/>
<path d="M19.7292 29.3003V37.6514H18.51V29.3003H19.7292Z" fill="#C0C0C0"/>
<path d="M23.4336 37.7778C22.8464 37.7778 22.334 37.6432 21.8963 37.3741C21.4587 37.105 21.1189 36.7285 20.8769 36.2446C20.635 35.7607 20.514 35.1953 20.514 34.5483C20.514 33.8986 20.635 33.3304 20.8769 32.8438C21.1189 32.3572 21.4587 31.9793 21.8963 31.7102C22.334 31.4411 22.8464 31.3065 23.4336 31.3065C24.0208 31.3065 24.5332 31.4411 24.9709 31.7102C25.4086 31.9793 25.7484 32.3572 25.9903 32.8438C26.2323 33.3304 26.3532 33.8986 26.3532 34.5483C26.3532 35.1953 26.2323 35.7607 25.9903 36.2446C25.7484 36.7285 25.4086 37.105 24.9709 37.3741C24.5332 37.6432 24.0208 37.7778 23.4336 37.7778ZM23.4377 36.7543C23.8183 36.7543 24.1336 36.6537 24.3837 36.4525C24.6338 36.2514 24.8187 35.9836 24.9383 35.6492C25.0606 35.3149 25.1218 34.9465 25.1218 34.5442C25.1218 34.1446 25.0606 33.7776 24.9383 33.4432C24.8187 33.1061 24.6338 32.8356 24.3837 32.6318C24.1336 32.4279 23.8183 32.3259 23.4377 32.3259C23.0544 32.3259 22.7363 32.4279 22.4835 32.6318C22.2334 32.8356 22.0472 33.1061 21.9249 33.4432C21.8053 33.7776 21.7455 34.1446 21.7455 34.5442C21.7455 34.9465 21.8053 35.3149 21.9249 35.6492C22.0472 35.9836 22.2334 36.2514 22.4835 36.4525C22.7363 36.6537 23.0544 36.7543 23.4377 36.7543Z" fill="#C0C0C0"/>
<path d="M27.14 37.6514V31.3881H28.3185V32.383H28.3837C28.4979 32.0459 28.6991 31.7809 28.9872 31.5879C29.2781 31.3921 29.607 31.2943 29.974 31.2943C30.0501 31.2943 30.1398 31.297 30.2431 31.3024C30.3492 31.3079 30.4321 31.3147 30.4919 31.3228V32.489C30.4429 32.4754 30.356 32.4605 30.2309 32.4442C30.1059 32.4252 29.9808 32.4156 29.8558 32.4156C29.5676 32.4156 29.3107 32.4768 29.0851 32.5991C28.8622 32.7187 28.6855 32.8859 28.555 33.1007C28.4245 33.3127 28.3593 33.5547 28.3593 33.8265V37.6514H27.14Z" fill="#C0C0C0"/>
<path d="M33.448 37.7778C32.8309 37.7778 32.2994 37.6459 31.8536 37.3823C31.4105 37.1158 31.068 36.7421 30.826 36.2609C30.5868 35.777 30.4672 35.2102 30.4672 34.5605C30.4672 33.9189 30.5868 33.3535 30.826 32.8642C31.068 32.3749 31.4051 31.9929 31.8373 31.7184C32.2723 31.4438 32.7806 31.3065 33.3624 31.3065C33.7158 31.3065 34.0583 31.365 34.3899 31.4819C34.7216 31.5987 35.0193 31.7822 35.283 32.0323C35.5466 32.2824 35.7546 32.6073 35.9068 33.0069C36.0591 33.4038 36.1352 33.8863 36.1352 34.4545V34.8867H31.1563V33.9733H34.9404C34.9404 33.6525 34.8752 33.3685 34.7447 33.1211C34.6142 32.871 34.4307 32.6739 34.1942 32.5298C33.9604 32.3857 33.6859 32.3137 33.3705 32.3137C33.028 32.3137 32.729 32.398 32.4734 32.5665C32.2206 32.7323 32.0249 32.9498 31.8862 33.2189C31.7503 33.4854 31.6824 33.7749 31.6824 34.0875V34.8011C31.6824 35.2197 31.7558 35.5758 31.9026 35.8694C32.0521 36.163 32.26 36.3873 32.5264 36.5423C32.7928 36.6945 33.1041 36.7706 33.4602 36.7706C33.6913 36.7706 33.902 36.738 34.0923 36.6727C34.2826 36.6048 34.447 36.5042 34.5857 36.371C34.7243 36.2378 34.8303 36.0733 34.9037 35.8776L36.0577 36.0856C35.9653 36.4254 35.7995 36.723 35.5602 36.9786C35.3237 37.2314 35.0261 37.4285 34.6672 37.5698C34.3111 37.7085 33.9047 37.7778 33.448 37.7778Z" fill="#C0C0C0"/>
<path d="M66.5665 5.47995C65.336 5.36142 64.1008 5.65272 63.053 6.30856V5.45532H60.3984V18.6275H63.053V11.1664C63.0465 10.4268 63.3103 9.71031 63.795 9.15163C64.2796 8.59295 64.9517 8.23057 65.6848 8.1326C66.101 8.08543 66.5226 8.12654 66.9219 8.25325C67.3212 8.37997 67.6894 8.58944 68.0023 8.868C68.3152 9.14657 68.5659 9.48798 68.738 9.86995C68.9101 10.2519 68.9997 10.6659 69.001 11.0848V18.6275H71.6556V11.2005C71.6556 8.2786 69.477 5.7511 66.5665 5.47995Z" fill="white"/>
<path d="M10.6789 5.47995C9.44841 5.36142 8.21324 5.65272 7.1654 6.30856V5.45532H4.51086V18.6275H7.1654V11.1664C7.15888 10.4268 7.42276 9.71031 7.90741 9.15163C8.39206 8.59295 9.06411 8.23057 9.79719 8.1326C10.2142 8.08454 10.6367 8.1251 11.037 8.25164C11.4373 8.37819 11.8063 8.58787 12.1199 8.86694C12.4335 9.14601 12.6847 9.48817 12.8569 9.87103C13.0291 10.2539 13.1184 10.6688 13.1192 11.0886V18.6275H15.7737V11.2005C15.7737 8.2786 13.5913 5.7511 10.6789 5.47995Z" fill="white"/>
<path d="M23.4375 15.9593C22.6871 15.9614 21.9507 15.7566 21.3091 15.3675C20.6674 14.9783 20.1455 14.4198 19.8006 13.7534C19.4557 13.0869 19.3011 12.3383 19.3539 11.5898C19.4067 10.8412 19.6649 10.1217 20.0999 9.51029C20.535 8.89886 21.1301 8.41918 21.82 8.12394C22.5099 7.8287 23.2678 7.72933 24.0105 7.83675C24.7531 7.94416 25.4519 8.25421 26.0298 8.73283C26.6078 9.21144 27.0427 9.84009 27.2866 10.5497H30.036C29.7067 8.91123 28.7802 7.4536 27.4363 6.46001C26.0925 5.46642 24.4273 5.0078 22.7643 5.17324C21.1012 5.33869 19.559 6.11639 18.4373 7.35526C17.3156 8.59413 16.6943 10.2057 16.6943 11.877C16.6943 13.5483 17.3156 15.1599 18.4373 16.3987C19.559 17.6376 21.1012 18.4153 22.7643 18.5807C24.4273 18.7462 26.0925 18.2876 27.4363 17.294C28.7802 16.3004 29.7067 14.8428 30.036 13.2043H27.2866C27.0103 14.0062 26.4914 14.7022 25.8016 15.1959C25.1119 15.6896 24.2857 15.9564 23.4375 15.9593Z" fill="white"/>
<path d="M44.3138 10.5499C43.9731 8.83847 42.9873 7.32362 41.5604 6.31903C40.1336 5.31444 38.375 4.89705 36.6489 5.15331C34.9228 5.40957 33.3614 6.31983 32.2879 7.69562C31.2145 9.07141 30.7112 10.8073 30.8824 12.5439C31.0536 14.2805 31.8861 15.8848 33.2075 17.0245C34.5289 18.1642 36.238 18.7521 37.9809 18.6664C39.7238 18.5808 41.367 17.8281 42.5703 16.5642C43.7735 15.3004 44.4446 13.6222 44.4447 11.8772C44.4445 11.4315 44.4007 10.987 44.3138 10.5499ZM37.7154 15.9595C36.9107 15.9576 36.1246 15.7174 35.4562 15.2691C34.7879 14.8209 34.2674 14.1847 33.9603 13.4409C33.6532 12.6971 33.5733 11.8789 33.7308 11.0898C33.8882 10.3006 34.276 9.57577 34.845 9.00675C35.414 8.43772 36.1388 8.05002 36.928 7.89257C37.7172 7.73512 38.5353 7.81497 39.2791 8.12206C40.0229 8.42915 40.6591 8.9497 41.1074 9.61801C41.5556 10.2863 41.7958 11.0725 41.7977 11.8772C41.7942 12.9588 41.363 13.9951 40.5982 14.7599C39.8333 15.5248 38.797 15.956 37.7154 15.9595Z" fill="white"/>
<path d="M2.65466 18.6311L2.65466 0L0.000125647 0L0.000125647 18.6311H2.65466Z" fill="white"/>
<path d="M76.1719 5.45508H73.5173V18.6311H76.1719V5.45508Z" fill="white"/>
<path d="M76.1719 0.00390625H73.5173V2.65844H76.1719V0.00390625Z" fill="white"/>
<path d="M55.8875 5.45506V6.75956C54.9083 6.02965 53.7454 5.58643 52.5288 5.47943C51.3122 5.37242 50.0898 5.60586 48.9982 6.15364C47.9067 6.70142 46.989 7.54197 46.3476 8.58134C45.7063 9.62071 45.3667 10.818 45.3667 12.0393C45.3667 13.2606 45.7063 14.4578 46.3476 15.4972C46.989 16.5365 47.9067 17.3771 48.9982 17.9249C50.0898 18.4726 51.3122 18.7061 52.5288 18.5991C53.7454 18.4921 54.9083 18.0488 55.8875 17.3189V17.4896C55.8875 18.3223 55.6228 19.1336 55.1316 19.806C54.6404 20.4785 53.9482 20.9774 53.1548 21.2307C52.3615 21.4839 51.5082 21.4784 50.7182 21.2149C49.9283 20.9515 49.2425 20.4437 48.76 19.7649L46.8639 21.661C47.7237 22.7124 48.8877 23.4721 50.1963 23.8358C51.5049 24.1995 52.8939 24.1495 54.1729 23.6925C55.4519 23.2356 56.5583 22.3941 57.3401 21.2836C58.122 20.173 58.5412 18.8478 58.5401 17.4896V5.45506H55.8875ZM52.3607 15.95C51.5532 16.033 50.7398 15.864 50.0322 15.4662C49.3246 15.0684 48.7576 14.4613 48.4089 13.7282C48.0603 12.9952 47.9471 12.1721 48.085 11.3722C48.223 10.5722 48.6052 9.8346 49.1791 9.26061C49.7531 8.68661 50.4908 8.30442 51.2907 8.16651C52.0907 8.0286 52.9137 8.14173 53.6468 8.49039C54.3798 8.83904 54.987 9.40611 55.3848 10.1137C55.7826 10.8213 55.9516 11.6347 55.8685 12.4422C55.775 13.3406 55.3754 14.1795 54.7367 14.8182C54.098 15.4569 53.2591 15.8565 52.3607 15.95Z" fill="white"/>
<path d="M84.9946 15.9463C84.2911 15.8206 83.6549 15.4495 83.1994 14.8988C82.7439 14.3481 82.4985 13.6537 82.5069 12.9391V8.10973H85.1615V5.45519H82.5069V0.00390625H79.8524V5.45519H77.0992V8.10973H79.8524V12.9391C79.8524 16.0335 82.3837 18.6274 85.4781 18.6369C86.8471 18.6369 87.816 18.3657 88.6901 17.6509C88.014 17.0489 87.4936 16.2923 87.1732 15.4457C86.5406 15.8915 85.7583 16.0712 84.9946 15.9463Z" fill="white"/>
<path d="M101.938 10.5499C101.597 8.83847 100.612 7.32362 99.1847 6.31903C97.7578 5.31444 95.9993 4.89705 94.2732 5.15331C92.5471 5.40957 90.9856 6.31983 89.9122 7.69562C88.8387 9.07141 88.3355 10.8073 88.5067 12.5439C88.6779 14.2805 89.5104 15.8848 90.8318 17.0245C92.1532 18.1642 93.8623 18.7521 95.6052 18.6664C97.3481 18.5808 98.9913 17.8281 100.195 16.5642C101.398 15.3004 102.069 13.6222 102.069 11.8772C102.069 11.4315 102.025 10.987 101.938 10.5499ZM95.3321 15.9595C94.5274 15.9576 93.7412 15.7174 93.0729 15.2691C92.4046 14.8209 91.884 14.1847 91.577 13.4409C91.2699 12.6971 91.19 11.8789 91.3475 11.0898C91.5049 10.3006 91.8926 9.57577 92.4617 9.00675C93.0307 8.43772 93.7555 8.05002 94.5447 7.89257C95.3338 7.73512 96.152 7.81497 96.8958 8.12206C97.6396 8.42915 98.2758 8.9497 98.724 9.61801C99.1723 10.2863 99.4125 11.0725 99.4144 11.8772C99.4109 12.9588 98.9797 13.9951 98.2148 14.7599C97.45 15.5248 96.4137 15.956 95.3321 15.9595Z" fill="white"/>
<rect x="41" y="26" width="34" height="16" rx="6" fill="#303030"/>
<path d="M46.3789 38V30H49.3086C49.8763 30 50.3464 30.0937 50.7188 30.2812C51.0911 30.4661 51.3698 30.7174 51.5547 31.0352C51.7396 31.3503 51.832 31.7057 51.832 32.1016C51.832 32.4349 51.7708 32.7161 51.6484 32.9453C51.526 33.1719 51.362 33.3542 51.1563 33.4922C50.9531 33.6276 50.7292 33.7266 50.4844 33.7891V33.8672C50.75 33.8802 51.0091 33.9661 51.2617 34.125C51.5169 34.2812 51.7279 34.5039 51.8945 34.793C52.0612 35.082 52.1445 35.4336 52.1445 35.8477C52.1445 36.2565 52.0482 36.6237 51.8555 36.9492C51.6654 37.2721 51.3711 37.5286 50.9727 37.7187C50.5742 37.9062 50.0651 38 49.4453 38H46.3789ZM47.5859 36.9648H49.3281C49.9063 36.9648 50.3203 36.8529 50.5703 36.6289C50.8203 36.4049 50.9453 36.125 50.9453 35.7891C50.9453 35.5365 50.8815 35.3047 50.7539 35.0937C50.6263 34.8828 50.444 34.7148 50.207 34.5898C49.9727 34.4648 49.694 34.4023 49.3711 34.4023H47.5859V36.9648ZM47.5859 33.4609H49.2031C49.474 33.4609 49.7174 33.4089 49.9336 33.3047C50.1523 33.2005 50.3255 33.0547 50.4531 32.8672C50.5833 32.6771 50.6484 32.4531 50.6484 32.1953C50.6484 31.8646 50.5326 31.5872 50.3008 31.3633C50.069 31.1393 49.7135 31.0273 49.2344 31.0273H47.5859V33.4609ZM56.0684 38.1211C55.4772 38.1211 54.9681 37.9948 54.541 37.7422C54.1165 37.487 53.7884 37.1289 53.5566 36.668C53.3275 36.2044 53.2129 35.6615 53.2129 35.0391C53.2129 34.4245 53.3275 33.8828 53.5566 33.4141C53.7884 32.9453 54.1113 32.5794 54.5254 32.3164C54.9421 32.0534 55.429 31.9219 55.9863 31.9219C56.3249 31.9219 56.653 31.9779 56.9707 32.0898C57.2884 32.2018 57.5736 32.3776 57.8262 32.6172C58.0788 32.8568 58.278 33.168 58.4238 33.5508C58.5697 33.931 58.6426 34.3932 58.6426 34.9375V35.3516H53.873V34.4766H57.498C57.498 34.1693 57.4355 33.8971 57.3105 33.6602C57.1855 33.4206 57.0098 33.2318 56.7832 33.0937C56.5592 32.9557 56.2962 32.8867 55.9941 32.8867C55.666 32.8867 55.3796 32.9674 55.1348 33.1289C54.8926 33.2878 54.7051 33.4961 54.5723 33.7539C54.4421 34.0091 54.377 34.2865 54.377 34.5859V35.2695C54.377 35.6706 54.4473 36.0117 54.5879 36.293C54.7311 36.5742 54.9303 36.7891 55.1855 36.9375C55.4408 37.0833 55.7389 37.1562 56.0801 37.1562C56.3014 37.1562 56.5033 37.125 56.6855 37.0625C56.8678 36.9974 57.0254 36.901 57.1582 36.7734C57.291 36.6458 57.3926 36.4883 57.4629 36.3008L58.5684 36.5C58.4798 36.8255 58.321 37.1107 58.0918 37.3555C57.8652 37.5977 57.5801 37.7865 57.2363 37.9219C56.8952 38.0547 56.5059 38.1211 56.0684 38.1211ZM62.7393 32V32.9375H59.4619V32H62.7393ZM60.3408 30.5625H61.5088V36.2383C61.5088 36.4648 61.5426 36.6354 61.6104 36.75C61.6781 36.862 61.7653 36.9388 61.8721 36.9805C61.9814 37.0195 62.0999 37.0391 62.2275 37.0391C62.3213 37.0391 62.4033 37.0326 62.4736 37.0195C62.5439 37.0065 62.5986 36.9961 62.6377 36.9883L62.8486 37.9531C62.7809 37.9792 62.6846 38.0052 62.5596 38.0313C62.4346 38.0599 62.2783 38.0755 62.0908 38.0781C61.7835 38.0833 61.4971 38.0286 61.2314 37.9141C60.9658 37.7995 60.751 37.6224 60.5869 37.3828C60.4229 37.1432 60.3408 36.8424 60.3408 36.4805V30.5625ZM65.7773 38.1328C65.3971 38.1328 65.0534 38.0625 64.7461 37.9219C64.4388 37.7786 64.1953 37.5716 64.0156 37.3008C63.8385 37.0299 63.75 36.6979 63.75 36.3047C63.75 35.9661 63.8151 35.6875 63.9453 35.4687C64.0755 35.25 64.2513 35.0768 64.4727 34.9492C64.694 34.8216 64.9414 34.7253 65.2148 34.6602C65.4883 34.5951 65.7669 34.5456 66.0508 34.5117C66.4102 34.4701 66.7018 34.4362 66.9258 34.4102C67.1497 34.3815 67.3125 34.3359 67.4141 34.2734C67.5156 34.2109 67.5664 34.1094 67.5664 33.9687V33.9414C67.5664 33.6003 67.4701 33.3359 67.2773 33.1484C67.0872 32.9609 66.8034 32.8672 66.4258 32.8672C66.0326 32.8672 65.7227 32.9544 65.4961 33.1289C65.2721 33.3008 65.1172 33.4922 65.0313 33.7031L63.9336 33.4531C64.0638 33.0885 64.2539 32.7943 64.5039 32.5703C64.7565 32.3437 65.0469 32.1797 65.375 32.0781C65.7031 31.974 66.0482 31.9219 66.4102 31.9219C66.6497 31.9219 66.9036 31.9505 67.1719 32.0078C67.4427 32.0625 67.6953 32.1641 67.9297 32.3125C68.1667 32.4609 68.3607 32.6732 68.5117 32.9492C68.6628 33.2227 68.7383 33.5781 68.7383 34.0156V38H67.5977V37.1797H67.5508C67.4753 37.3307 67.362 37.4792 67.2109 37.625C67.0599 37.7708 66.8659 37.8919 66.6289 37.9883C66.3919 38.0846 66.1081 38.1328 65.7773 38.1328ZM66.0313 37.1953C66.3542 37.1953 66.6302 37.1315 66.8594 37.0039C67.0911 36.8763 67.2669 36.7096 67.3867 36.5039C67.5091 36.2956 67.5703 36.0729 67.5703 35.8359V35.0625C67.5286 35.1042 67.4479 35.1432 67.3281 35.1797C67.2109 35.2135 67.0768 35.2435 66.9258 35.2695C66.7747 35.293 66.6276 35.3151 66.4844 35.3359C66.3411 35.3542 66.2214 35.3698 66.125 35.3828C65.8984 35.4115 65.6914 35.4596 65.5039 35.5273C65.319 35.5951 65.1706 35.6927 65.0586 35.8203C64.9492 35.9453 64.8945 36.112 64.8945 36.3203C64.8945 36.6094 65.0013 36.8281 65.2148 36.9766C65.4284 37.1224 65.7005 37.1953 66.0313 37.1953Z" fill="#C0C0C0"/>
</svg>
