<svg width="153" height="44" viewBox="0 0 153 44" fill="none" xmlns="http://www.w3.org/2000/svg">
    <path fill-rule="evenodd" clip-rule="evenodd"
        d="M22 40.3333C32.1252 40.3333 40.3333 32.1252 40.3333 22C40.3333 11.8748 32.1252 3.66667 22 3.66667C11.8748 3.66667 3.66667 11.8748 3.66667 22C3.66667 32.1252 11.8748 40.3333 22 40.3333ZM22 44C34.1503 44 44 34.1503 44 22C44 9.84973 34.1503 0 22 0C9.84973 0 0 9.84973 0 22C0 34.1503 9.84973 44 22 44Z"
        fill="white" />
    <path
        d="M118.768 8.91603C117.589 8.80248 116.406 9.08153 115.402 9.7098V8.89243H112.859V21.5108H115.402V14.3634C115.396 13.6549 115.649 12.9685 116.113 12.4333C116.577 11.8982 117.221 11.551 117.923 11.4572C118.322 11.412 118.726 11.4513 119.108 11.5727C119.491 11.6941 119.844 11.8948 120.143 12.1616C120.443 12.4285 120.683 12.7555 120.848 13.1215C121.013 13.4874 121.099 13.8839 121.1 14.2853V21.5108H123.643V14.3961C123.643 11.597 121.556 9.17577 118.768 8.91603Z"
        fill="white" />
    <path
        d="M65.2299 8.91603C64.0512 8.80248 62.8679 9.08153 61.8641 9.7098V8.89243H59.3212V21.5108H61.8641V14.3634C61.8579 13.6549 62.1107 12.9685 62.5749 12.4333C63.0392 11.8982 63.683 11.551 64.3853 11.4572C64.7848 11.4111 65.1895 11.45 65.573 11.5712C65.9564 11.6924 66.3099 11.8933 66.6103 12.1606C66.9108 12.428 67.1514 12.7557 67.3163 13.1225C67.4813 13.4893 67.5669 13.8867 67.5676 14.2889V21.5108H70.1105V14.3961C70.1105 11.597 68.0199 9.17577 65.2299 8.91603Z"
        fill="white" />
    <path
        d="M77.4523 18.9552C76.7335 18.9572 76.028 18.761 75.4133 18.3882C74.7987 18.0154 74.2987 17.4805 73.9683 16.842C73.6379 16.2036 73.4898 15.4865 73.5404 14.7694C73.591 14.0523 73.8383 13.363 74.255 12.7773C74.6718 12.1916 75.2419 11.7321 75.9028 11.4493C76.5637 11.1664 77.2897 11.0712 78.0012 11.1741C78.7126 11.277 79.382 11.5741 79.9356 12.0325C80.4893 12.491 80.9059 13.0933 81.1396 13.7731H83.7734C83.4579 12.2034 82.5703 10.8071 81.283 9.85528C79.9957 8.90346 78.4005 8.46412 76.8073 8.62261C75.2142 8.7811 73.7369 9.5261 72.6623 10.7129C71.5877 11.8997 70.9926 13.4435 70.9926 15.0445C70.9926 16.6455 71.5877 18.1894 72.6623 19.3762C73.7369 20.5629 75.2142 21.308 76.8073 21.4664C78.4005 21.6249 79.9957 21.1856 81.283 20.2338C82.5703 19.282 83.4579 17.8856 83.7734 16.316H81.1396C80.8749 17.0842 80.3777 17.751 79.717 18.2239C79.0563 18.6968 78.2648 18.9524 77.4523 18.9552V18.9552Z"
        fill="white" />
    <path
        d="M97.4507 13.773C97.1244 12.1335 96.1799 10.6824 94.8131 9.72002C93.4462 8.75766 91.7616 8.35782 90.1081 8.6033C88.4545 8.84879 86.9588 9.72079 85.9304 11.0387C84.9021 12.3567 84.42 14.0196 84.584 15.6832C84.748 17.3468 85.5455 18.8836 86.8113 19.9754C88.0772 21.0672 89.7145 21.6304 91.3841 21.5483C93.0537 21.4662 94.6278 20.7452 95.7805 19.5345C96.9332 18.3238 97.5761 16.7161 97.5761 15.0445C97.5759 14.6176 97.5339 14.1917 97.4507 13.773V13.773ZM91.1297 18.9552C90.3588 18.9534 89.6058 18.7232 88.9655 18.2938C88.3253 17.8644 87.8267 17.255 87.5325 16.5425C87.2383 15.8299 87.1618 15.0462 87.3126 14.2902C87.4635 13.5342 87.8349 12.8398 88.38 12.2947C88.9251 11.7496 89.6194 11.3782 90.3754 11.2274C91.1314 11.0766 91.9151 11.1531 92.6277 11.4472C93.3402 11.7414 93.9497 12.2401 94.3791 12.8803C94.8085 13.5205 95.0386 14.2736 95.0404 15.0445C95.0371 16.0806 94.624 17.0734 93.8913 17.8061C93.1586 18.5387 92.1659 18.9518 91.1297 18.9552Z"
        fill="white" />
    <path d="M57.543 21.5145V3.66669H55.0001V21.5145H57.543Z" fill="white" />
    <path d="M127.97 8.89243H125.427V21.5145H127.97V8.89243Z" fill="white" />
    <path d="M127.97 3.67033H125.427V6.21327H127.97V3.67033Z" fill="white" />
    <path
        d="M108.538 8.89242V10.1421C107.6 9.44286 106.486 9.01828 105.32 8.91577C104.155 8.81327 102.984 9.03689 101.938 9.56164C100.893 10.0864 100.014 10.8916 99.3992 11.8873C98.7848 12.8829 98.4595 14.0299 98.4595 15.1998C98.4595 16.3698 98.7848 17.5167 99.3992 18.5123C100.014 19.508 100.893 20.3132 101.938 20.838C102.984 21.3627 104.155 21.5864 105.32 21.4839C106.486 21.3813 107.6 20.9568 108.538 20.2575V20.421C108.538 21.2188 108.284 21.9959 107.814 22.6401C107.343 23.2843 106.68 23.7622 105.92 24.0048C105.16 24.2474 104.343 24.2421 103.586 23.9897C102.829 23.7373 102.172 23.2509 101.71 22.6007L99.8938 24.417C100.717 25.4243 101.832 26.152 103.086 26.5004C104.34 26.8488 105.67 26.8009 106.895 26.3632C108.121 25.9254 109.181 25.1194 109.93 24.0555C110.679 22.9916 111.08 21.7221 111.079 20.421V8.89242H108.538ZM105.159 18.9461C104.386 19.0257 103.607 18.8638 102.929 18.4827C102.251 18.1016 101.708 17.52 101.374 16.8178C101.04 16.1155 100.931 15.3271 101.064 14.5608C101.196 13.7945 101.562 13.0878 102.112 12.538C102.662 11.9881 103.368 11.622 104.134 11.4899C104.901 11.3578 105.689 11.4661 106.391 11.8001C107.094 12.1341 107.675 12.6774 108.056 13.3552C108.437 14.0331 108.599 14.8123 108.52 15.5858C108.43 16.4464 108.047 17.2501 107.436 17.8619C106.824 18.4737 106.02 18.8566 105.159 18.9461Z"
        fill="white" />
    <path
        d="M136.421 18.9425C135.747 18.8221 135.138 18.4665 134.702 17.939C134.265 17.4115 134.03 16.7463 134.038 16.0617V11.4354H136.581V8.89244H134.038V3.67033H131.495V8.89244H128.858V11.4354H131.495V16.0617C131.495 19.026 133.92 21.5108 136.884 21.5199C138.196 21.5199 139.124 21.2602 139.961 20.5754C139.314 19.9987 138.815 19.274 138.508 18.463C137.902 18.89 137.153 19.0622 136.421 18.9425V18.9425Z"
        fill="white" />
    <path
        d="M152.652 13.773C152.326 12.1335 151.382 10.6824 150.015 9.72002C148.648 8.75766 146.963 8.35782 145.31 8.6033C143.656 8.84879 142.16 9.72079 141.132 11.0387C140.104 12.3567 139.622 14.0196 139.786 15.6832C139.95 17.3468 140.747 18.8836 142.013 19.9754C143.279 21.0672 144.916 21.6304 146.586 21.5483C148.255 21.4662 149.83 20.7452 150.982 19.5345C152.135 18.3238 152.778 16.7161 152.778 15.0445C152.778 14.6176 152.736 14.1917 152.652 13.773V13.773ZM146.324 18.9552C145.553 18.9534 144.8 18.7232 144.16 18.2938C143.52 17.8644 143.021 17.255 142.727 16.5425C142.433 15.8299 142.356 15.0462 142.507 14.2902C142.658 13.5342 143.029 12.8398 143.574 12.2947C144.12 11.7496 144.814 11.3782 145.57 11.2274C146.326 11.0766 147.11 11.1531 147.822 11.4472C148.535 11.7414 149.144 12.2401 149.574 12.8803C150.003 13.5205 150.233 14.2736 150.235 15.0445C150.232 16.0806 149.818 17.0734 149.086 17.8061C148.353 18.5387 147.36 18.9518 146.324 18.9552V18.9552Z"
        fill="white" />
    <path d="M55 39.492H61.2418V38.3633H56.2567V34.9078H60.9834V33.7931H56.2567V30.5675H61.2418V29.4389H55V39.492Z"
        fill="#C0C0C0" />
    <path
        d="M62.0489 39.492H63.4103L65.1977 36.6565H65.3094L67.0898 39.492H68.5141L65.9238 35.6881L68.4792 31.9818H67.1177L65.3513 34.7755H65.2396L63.4522 31.9818H62.0209L64.6252 35.7369L62.0489 39.492Z"
        fill="#C0C0C0" />
    <path
        d="M69.4329 42H70.6477V38.3076H70.7594C71.1714 39.1088 72.072 39.6243 73.1053 39.6243C75.0184 39.6243 76.2611 38.0986 76.2611 35.7438V35.7299C76.2611 33.3891 75.0114 31.8494 73.1053 31.8494C72.058 31.8494 71.2202 32.3441 70.7594 33.1801H70.6477V31.9818H69.4329V42ZM72.8261 38.5514C71.4576 38.5514 70.6198 37.4786 70.6198 35.7438V35.7299C70.6198 33.9952 71.4576 32.9223 72.8261 32.9223C74.2015 32.9223 75.0184 33.9812 75.0184 35.7299V35.7438C75.0184 37.4925 74.2015 38.5514 72.8261 38.5514Z"
        fill="#C0C0C0" />
    <path d="M77.5151 39.492H78.7299V29H77.5151V39.492Z" fill="#C0C0C0" />
    <path
        d="M83.4399 39.6243C85.5833 39.6243 86.9098 38.1474 86.9098 35.7438V35.7299C86.9098 33.3194 85.5833 31.8494 83.4399 31.8494C81.2964 31.8494 79.9699 33.3194 79.9699 35.7299V35.7438C79.9699 38.1474 81.2964 39.6243 83.4399 39.6243ZM83.4399 38.5514C82.0156 38.5514 81.2126 37.5134 81.2126 35.7438V35.7299C81.2126 33.9534 82.0156 32.9223 83.4399 32.9223C84.8642 32.9223 85.6671 33.9534 85.6671 35.7299V35.7438C85.6671 37.5134 84.8642 38.5514 83.4399 38.5514Z"
        fill="#C0C0C0" />
    <path
        d="M88.08 39.492H89.2948V34.8382C89.2948 33.7374 90.1187 33.0059 91.2777 33.0059C91.543 33.0059 91.7734 33.0338 92.0247 33.0756V31.8982C91.906 31.8773 91.6477 31.8494 91.4173 31.8494C90.398 31.8494 89.6928 32.3092 89.4065 33.0965H89.2948V31.9818H88.08V39.492Z"
        fill="#C0C0C0" />
    <path
        d="M95.6734 39.6243C97.4468 39.6243 98.522 38.6211 98.7804 37.604L98.7943 37.5482H97.5795L97.5516 37.6109C97.3491 38.0638 96.7207 38.5445 95.7014 38.5445C94.3609 38.5445 93.5021 37.6388 93.4672 36.0852H98.8851V35.6115C98.8851 33.3682 97.6423 31.8494 95.5966 31.8494C93.551 31.8494 92.2244 33.4378 92.2244 35.7578V35.7647C92.2244 38.1195 93.523 39.6243 95.6734 39.6243ZM95.5897 32.9293C96.6998 32.9293 97.5236 33.6329 97.6493 35.1168H93.4881C93.6208 33.6886 94.4726 32.9293 95.5897 32.9293Z"
        fill="#C0C0C0" />
    <path
        d="M100.055 39.492H101.27V34.8382C101.27 33.7374 102.094 33.0059 103.253 33.0059C103.518 33.0059 103.749 33.0338 104 33.0756V31.8982C103.881 31.8773 103.623 31.8494 103.393 31.8494C102.373 31.8494 101.668 32.3092 101.382 33.0965H101.27V31.9818H100.055V39.492Z"
        fill="#C0C0C0" />
</svg>